/* XPM */
static const char *monteverdi2_xpm[] = {
/* columns rows colors chars-per-pixel */
"48 48 179 2",
"   c #000000",
".  c #0B0303",
"X  c #000807",
"o  c #0E0A06",
"O  c #060608",
"+  c #08070A",
"@  c #050B0B",
"#  c #0D0A0A",
"$  c #170102",
"%  c #1C0001",
"&  c #100A06",
"*  c #120D0D",
"=  c #03100F",
"-  c #0A120E",
";  c #14120E",
":  c #0D0D12",
">  c #061313",
",  c #0A1515",
"<  c #0E1912",
"1  c #0D141B",
"2  c #0F1819",
"3  c #131213",
"4  c #1A1614",
"5  c #1D1916",
"6  c #12141A",
"7  c #141C1C",
"8  c #1C1B1A",
"9  c #230203",
"0  c #2D0405",
"q  c #320305",
"w  c #3B0305",
"e  c #320808",
"r  c #221A15",
"t  c #231D1B",
"y  c #192117",
"u  c #21201F",
"i  c #28221E",
"p  c #131621",
"a  c #171922",
"s  c #181B24",
"d  c #1B1E2A",
"f  c #1B2223",
"g  c #1B212D",
"h  c #1E2534",
"j  c #252324",
"k  c #2A2727",
"l  c #2D2926",
"z  c #272529",
"x  c #2D2A2A",
"c  c #322A26",
"v  c #342E2C",
"b  c #273A26",
"n  c #232937",
"m  c #202939",
"M  c #363332",
"N  c #393535",
"B  c #3C3939",
"V  c #440405",
"C  c #4A0305",
"Z  c #4A0708",
"A  c #550607",
"S  c #5B0507",
"D  c #550608",
"F  c #5E0709",
"G  c #510809",
"H  c #600406",
"J  c #690406",
"K  c #660709",
"L  c #67080A",
"P  c #6B0A0C",
"I  c #710507",
"U  c #740608",
"Y  c #7A0709",
"T  c #71080A",
"R  c #7C090C",
"E  c #423E3E",
"W  c #2F452D",
"Q  c #32472E",
"!  c #324D31",
"~  c #345133",
"^  c #385536",
"/  c #3D5C3A",
"(  c #40653E",
")  c #242F41",
"_  c #263146",
"`  c #2B3143",
"'  c #26334B",
"]  c #2A354A",
"[  c #2C3A53",
"{  c #2E3D58",
"}  c #303D56",
"|  c #323F58",
" . c #32415B",
".. c #354663",
"X. c #3A4967",
"o. c #364A6A",
"O. c #394C6C",
"+. c #354F74",
"@. c #3B4F72",
"#. c #37527A",
"$. c #3D557B",
"%. c #4D4B4B",
"&. c #554F50",
"*. c #4D5050",
"=. c #555253",
"-. c #5D5B5B",
";. c #615E5D",
":. c #486D44",
">. c #467143",
",. c #60605F",
"<. c #40597E",
"1. c #656263",
"2. c #696667",
"3. c #6C6A6A",
"4. c #737171",
"5. c #7D7B7B",
"6. c #830A0D",
"7. c #8B090C",
"8. c #940A0D",
"9. c #9D0A0C",
"0. c #A4090C",
"q. c #AB0A0E",
"w. c #B30B0E",
"e. c #BE0A0E",
"r. c #BE0C10",
"t. c #C60A0D",
"y. c #C90A0E",
"u. c #D40A0E",
"i. c #DB0A0F",
"p. c #D80B10",
"a. c #817F7E",
"s. c #5B9558",
"d. c #66A963",
"f. c #69B267",
"g. c #6DBE6C",
"h. c #6DC76C",
"j. c #6EC96D",
"k. c #71C570",
"l. c #73CE72",
"z. c #75D474",
"x. c #77D876",
"c. c #7BE17A",
"v. c #3F5982",
"b. c #405C84",
"n. c #425E88",
"m. c #43628E",
"M. c #436695",
"N. c #486795",
"B. c #436798",
"V. c #44699A",
"C. c #486B9D",
"Z. c #466DA2",
"A. c #486FA3",
"S. c #4A70A5",
"D. c #4B73AA",
"F. c #868384",
"G. c #8D8B8B",
"H. c #918F8F",
"J. c #989797",
"K. c #9A9898",
"L. c #A19F9F",
"P. c #A6A4A4",
"I. c #ABA9AA",
"U. c #B5B2B2",
"Y. c #B8B7B7",
"T. c #BCBABA",
"R. c #C2C1C1",
"E. c #CCCCCC",
"W. c #D2D0D1",
"Q. c #D8D7D7",
"!. c #DCDCDC",
"~. c #E0DEDE",
"^. c #E2E1E1",
"/. c #E8E7E7",
"(. c #EDEDEC",
"). c #F4F3F3",
"_. c #F8F6F6",
"`. c #FEFEFE",
"'. c None",
/* pixels */
"'.'.'.'.'.'.'.'.'.'.'.'.'.'.'.'.'.'.'.'.'.'.'.'.'.'.'.'.'.'.'.'.'.'.'.'.'.'.'.'.'.'.'.'.'.'.'.'.",
"'.'.'.'.'.'.'.'.'.'.'.'.'.'.'.'.'.'.'.'.'.'.'.'.'.'.'.'.'.'.'.'.'.'.'.'.'.'.'.'.'.'.'.'.'.'.'.'.",
"'.'.'.'.'.'.'.'.'.'.'.'.'.'.'.'.'.'.'.'.'.'.'.'.'.'.'.'.'.'.'.'.'.'.'.'.'.'.'.'.'.'.'.'.'.'.'.'.",
"'.'.'.'.'.'.'.'.'.'.'.'.'.'.'.'.'.'.'.'.'.'.'.'.'.'.'.'.'.'.'.'.'.'.'.'.'.'.'.'.'.'.'.'.'.'.'.'.",
"'.'.'.'.'.'.'.'.'.'.'.'.'.'.'.'.'.'.'.'.'.'.'.'.'.'.'.'.'.'.'.'.'.'.'.'.'.'.'.'.'.'.'.'.'.'.'.'.",
"'.'.'.'.'.'.'.'.'.'.'.'.'.'.'.'.'.'.'.'.'.'.'.'.'.'.'.'.'.*.=.=.'.'.'.'.'.'.'.'.'.'.'.'.'.'.'.'.",
"'.'.'.'.'.'.'.'.'.'.'.'.'.'.'.'.'.'.'.'.'.'.'.'.'.'.'.'.'.#       t '.'.'.'.'.'.'.'.'.'.'.'.'.'.",
"'.'.'.'.'.'.'.'.'.'.'.'.'.'.'.'.'.'.'.'.'.'.'.'.'.'.'.'.'.  0.t.  v '.'.'.'.'.'.'.'.'.'.'.'.'.'.",
"'.'.'.'.'.'.'.'.'.'.'.'.'.#     5 '.'.'.'.'.'.'.'.'.'.'.'.  0.w.  %.'.'.'.'.'.'.'.'.'.'.'.'.'.'.",
"'.'.'.'.'.'.'.'.'.'.'.'.'.+ W.R.  '.'.'.'.'.'.'.'.'.'.'.'.  w.9.  '.'.'.'.'.'.'.'.'.'.'.'.'.'.'.",
"'.'.'.'.'.'.'.'.'.'.'.'.'.3 `.).      O O   O O O +     *   e.I @ '.'.'.'.'.'.'.'.'.'.'.'.'.'.'.",
"'.'.'.'.'.'.'.'.'.'.'.l # O `.(.-.F.P.T.E.E.W.E.E.R.I.G.*   y.V , '.'.'.'.'.'.'.'.'.'.'.'.'.'.'.",
"'.'.'.'.'.'.'.'.'.5   * %.U.`.`.`.`.`.`.`.`.`.`.`.`.`.`.5   r.9 2 '.'.'.'.'.'.'.'.'.'.'.'.'.'.'.",
"'.'.'.'.'.'.'.8   j K._.`.`.`.`.`.`.`.`.`.`.`.`.`.`.`._.*   q.. 8 '.'.'.'.'.'.'.'.'.'.'.'.'.'.'.",
"'.'.'.'.'.'.  3 L.`.`.W.F.3.`._.E =.G.R.(.`.`.`.`.`.`.~..   9.  x '.'.'.'.'.'.'.'.'.'.'.'.'.'.'.",
"'.'.'.'.l   %.`.`.5.j     8 `.`.        4 4./.`.`.`.`.E.  . P   '.'.'.'.'.'.'.'.'.'.'.'.'.'.'.'.",
"'.'.'.N   F.`.J.    1 o._ 5 `.`.4 d n.] :     5._.`.`.T.        t f f , , , > 7 f k N '.'.'.'.'.",
"'.'.'.  H.`.%.  s $.Z.S.[ 4 `.`.B + S.Z.V.O.6   x Q.E.E         % C J I U Y U S V %   @ N '.'.'.",
"'.'.  1.`.k    .A.C.V.Z.[ ; `.`.3.  M.M.V.C.D.`                 0 K 9.p.i.u.u.u.u.i.w.Z   l '.'.",
"'.4 3 _.N   @.A.M.B.B.C.[ ; `.`.K.  ..Z.C.C.} +           8 ( Q <     $ 6.p.y.t.t.t.y.i.R   B '.",
"'.  K.5.  O.Z.B.V.V.B.Z.} ; `.`./.  p S.<.:   : [ $.a     ( c.z.l.d./ +   Z y.u.t.y.y.y.u.V > '.",
"'.* Y.  ) D.V.B.B.B.B.C.} * `.`.`.2.  n   # ..C.Z.A.N.:   >.z.j.h.z.x.h.!   e y.t.y.t.y.y.w.  '.",
"k k -.  M.V.M.V.V.B.B.Z.} # `.`.`._.    n A.Z.B.V.V.S.n   >.x.j.j.h.h.j.z./   Z u.t.y.t.t.u.% j ",
"v 3   ] Z.B.B.B.B.B.V.V. .o `.`.`.3.    : @.C.S.S.M.{     ( z.j.j.h.j.h.j.z.W   7.u.y.y.y.u.S 7 ",
"M   6 M.B.V.B.B.M.V.B.Z. .+ `.`.G.  Y.Y.    1 ) h         ! z.h.j.h.h.j.h.j.g.  0 u.t.y.t.u.J 2 ",
"5 o.A.V.M.B.V.V.V.V.V.V. .. `.Q.  I.`.`./.;.4     x F.3   5 l.h.h.h.j.h.h.h.x.! $ u.t.y.t.u.J 7 ",
"t #.V.B.B.V.B.V.V.B.B.Z...  `.B 2.`.`._.`.`.(.!.~.`.`.      d.j.h.h.j.h.h.h.z.~ % u.t.y.t.u.C s ",
"l $.Z.B.V.B.V.M.M.V.B.V.<.  5.v `.`.`.`.`.`.`.`.`.`.(.  G   b x.j.j.h.j.h.h.l.- w u.t.y.y.u.. l ",
"l #.V.B.V.B.B.B.B.M.V.V.M.:   U.`.`.`.`.`.`.`.`.`.`.!.  8.G   :.x.j.h.h.l.x./   6.u.y.t.y.q.  '.",
"r +.Z.V.B.B.V.B.B.V.B.V.Z.)   W.`.`._.`.`.`.`.`.`.`.E.  0.y.9   ^ f.l.k.s.b   e t.y.y.y.i.S > '.",
"r { C.B.M.B.B.B.V.M.B.B.B.N.  l `.`.`.`.`.`.`.`.`.`.U.  w.u.t.e     @       V y.y.y.y.y.e.. j '.",
"'.g S.M.V.V.V.M.B.V.B.V.B.C.O.  -.`.`.`._.`.`.`.`.`.K.  e.y.y.y.7.F D A T q.u.y.y.y.t.i.L X '.'.",
"'.# m.B.B.B.V.V.V.M.V.V.B.M.Z. .  %.).`.`.`.`.`.`.`.N.% e.y.y.y.u.u.u.u.u.y.y.y.y.y.u.q.  l '.'.",
"'.4 _ S.B.B.B.M.V.V.B.V.B.V.V.Z. .  # H._.`.`.`.`.`.-.o t.y.y.y.t.y.t.t.y.y.y.y.y.y.u.% 2 '.'.'.",
"'.'.# b.C.B.B.B.M.B.V.V.B.V.V.V.Z.$.p     B 1.;.%.4 O   8.u.y.y.y.y.y.y.y.t.y.y.y.u.w X '.'.'.'.",
"'.'.l 6 A.V.B.B.V.B.B.M.B.V.M.V.B.V.C.$.] 6 : @ , h X.+ 0 p.y.y.y.t.y.y.t.y.y.u.y.q O '.'.'.'.'.",
"'.'.'.5 g S.B.B.B.B.V.B.B.B.B.B.V.B.B.V.Z.A.S.A.S.D.| r   L i.y.y.y.t.y.y.u.i.7.. @ '.'.'.'.'.'.",
"'.'.'.'.* g C.C.B.V.B.V.B.V.V.M.B.B.B.V.V.V.M.B.S._ & '.B   V w.u.u.i.u.t.8.0   7 '.'.'.'.'.'.'.",
"'.'.'.'.'.r 6 v.Z.V.V.M.V.V.B.B.V.B.B.B.B.C.A.M.g & '.'.'.B @   q S S V $   2 '.'.'.'.'.'.'.'.'.",
"'.'.'.'.'.'.c o h v.Z.Z.B.B.B.M.B.B.B.Z.Z.m.' & t '.'.'.'.'.'.B 2 > 2 > f '.'.'.'.'.'.'.'.'.'.'.",
"'.'.'.'.'.'.'.'.k 3 g } b.M.V.B.B.B.v...h * 5 '.'.'.'.'.'.'.'.'.'.'.'.'.'.'.'.'.'.'.'.'.'.'.'.'.",
"'.'.'.'.'.'.'.'.'.'.v 4 ; r j z j 4 3 3 l '.'.'.'.'.'.'.'.'.'.'.'.'.'.'.'.'.'.'.'.'.'.'.'.'.'.'.",
"'.'.'.'.'.'.'.'.'.'.'.'.'.'.'.'.'.'.'.'.'.'.'.'.'.'.'.'.'.'.'.'.'.'.'.'.'.'.'.'.'.'.'.'.'.'.'.'.",
"'.'.'.'.'.'.'.'.'.'.'.'.'.'.'.'.'.'.'.'.'.'.'.'.'.'.'.'.'.'.'.'.'.'.'.'.'.'.'.'.'.'.'.'.'.'.'.'.",
"'.'.'.'.'.'.'.'.'.'.'.'.'.'.'.'.'.'.'.'.'.'.'.'.'.'.'.'.'.'.'.'.'.'.'.'.'.'.'.'.'.'.'.'.'.'.'.'.",
"'.'.'.'.'.'.'.'.'.'.'.'.'.'.'.'.'.'.'.'.'.'.'.'.'.'.'.'.'.'.'.'.'.'.'.'.'.'.'.'.'.'.'.'.'.'.'.'.",
"'.'.'.'.'.'.'.'.'.'.'.'.'.'.'.'.'.'.'.'.'.'.'.'.'.'.'.'.'.'.'.'.'.'.'.'.'.'.'.'.'.'.'.'.'.'.'.'.",
"'.'.'.'.'.'.'.'.'.'.'.'.'.'.'.'.'.'.'.'.'.'.'.'.'.'.'.'.'.'.'.'.'.'.'.'.'.'.'.'.'.'.'.'.'.'.'.'."
};
