<?xml version="1.0" encoding="UTF-8" standalone="no"?>
<!-- Created with Inkscape (http://www.inkscape.org/) -->

<svg
   xmlns:dc="http://purl.org/dc/elements/1.1/"
   xmlns:cc="http://creativecommons.org/ns#"
   xmlns:rdf="http://www.w3.org/1999/02/22-rdf-syntax-ns#"
   xmlns:svg="http://www.w3.org/2000/svg"
   xmlns="http://www.w3.org/2000/svg"
   xmlns:sodipodi="http://sodipodi.sourceforge.net/DTD/sodipodi-0.dtd"
   xmlns:inkscape="http://www.inkscape.org/namespaces/inkscape"
   id="svg2"
   sodipodi:version="0.32"
   inkscape:version="0.48.2 r9819"
   width="1024"
   height="1024"
   version="1.0"
   sodipodi:docname="monteverdi2.svg">
  <metadata
     id="metadata7">
    <rdf:RDF>
      <cc:Work
         rdf:about="">
        <dc:format>image/svg+xml</dc:format>
        <dc:type
           rdf:resource="http://purl.org/dc/dcmitype/StillImage" />
      </cc:Work>
    </rdf:RDF>
  </metadata>
  <defs
     id="defs5" />
  <sodipodi:namedview
     inkscape:window-height="721"
     inkscape:window-width="1024"
     inkscape:pageshadow="2"
     inkscape:pageopacity="0.0"
     guidetolerance="10.0"
     gridtolerance="10.0"
     objecttolerance="10.0"
     borderopacity="1.0"
     bordercolor="#666666"
     pagecolor="#ffffff"
     id="base"
     inkscape:zoom="0.34894983"
     inkscape:cx="366.35454"
     inkscape:cy="422.20322"
     inkscape:window-x="552"
     inkscape:window-y="33"
     inkscape:current-layer="g1892"
     showgrid="false"
     inkscape:window-maximized="0" />
  <g
     id="g1892"
     transform="translate(6.0791554,-4.05277)">
    <g
       id="g2989"
       transform="matrix(1.1755021,0,0,1.1580001,-110.91146,1.9856174)">
      <path
         sodipodi:nodetypes="cssssssssssccccccccccccsssssscsssssssssssscsssccsssssssssssssssssssscssssssssssssscccccccssssssssssssscsss"
         inkscape:connector-curvature="0"
         id="path1906"
         d="m 381.92084,692.08756 c -29.44259,-2.84679 -66.59653,-16.15077 -93.40867,-33.44751 -9.27039,-5.98041 -25.81637,-19.06817 -32.59133,-25.77953 -13.41644,-13.29048 -30.55337,-36.12598 -37.65824,-50.18079 -5.33219,-10.54812 -14.459,-35.29105 -16.64577,-45.12696 -3.10953,-13.98641 -3.92464,-25.7736 -3.39767,-49.13316 0.40709,-18.046 0.88819,-24.02636 2.282,-28.36684 1.30984,-4.07902 1.94557,-10.6672 2.46061,-25.5 0.84583,-24.35952 2.26771,-30.49271 11.36714,-49.03146 7.94406,-16.18487 15.20026,-26.0475 31.4217,-42.70841 32.79401,-33.68248 62.50898,-52.10134 110.17023,-68.28918 l 12.5,-4.24555 0.27529,-16.85686 0.27528,-16.85686 5.19056,-5.25584 5.19055,-5.25584 21.56832,0 21.56832,0 5.17829,5.25 5.1783,5.25 0.28754,9.5 0.28755,9.5 5,-0.0441 c 2.75,-0.0242 11.975,-0.63326 20.5,-1.35341 23.05356,-1.94744 89.34268,-1.09252 110.24096,1.42175 12.06353,1.45137 16.01567,1.61909 16.91683,0.71793 0.77793,-0.77793 1.63574,-10.9168 2.53472,-29.95904 1.17057,-24.79525 1.59212,-28.95821 3.04261,-30.04657 1.29353,-0.97058 9.22567,-1.20235 34.22433,-1 l 32.54055,0.2634 -0.32929,9 c -0.18111,4.95 -4.82392,37.52219 -10.31735,72.38265 -6.8392,43.40043 -9.66402,63.70669 -8.9602,64.41051 0.70381,0.70381 4.42939,0.50567 11.81735,-0.62848 26.11243,-4.00863 66.20612,-4.47669 96.28949,-1.1241 21.33739,2.37791 26.99795,3.36561 34.22125,5.97119 47.06118,16.97591 73.88617,64.20893 69.87131,123.02831 -1.0215,14.96541 -6.84418,40.20402 -12.7949,55.45992 -17.47849,44.80977 -51.28929,85.90094 -91.64824,111.38259 -19.24788,12.15264 -47.97157,23.30259 -66.03913,25.63504 -15.67124,2.0231 -35.56734,0.78578 -48.44621,-3.01283 -19.3258,-5.70012 -32.12013,-13.23112 -45.91623,-27.02722 -4.93767,-4.93767 -9.60089,-8.96626 -10.36271,-8.95242 -0.76183,0.0138 -6.76198,5.19923 -13.33368,11.52309 -15.83003,15.23304 -29.56841,25.02218 -49.26142,35.1007 -21.70381,11.10761 -42.58166,18.12692 -65.29004,21.95106 -10.07828,1.6972 -53.51894,2.64156 -66,1.43478 z m 155.06635,-108.4435 c 15.2855,-2.85849 18.64899,-4.39411 19.37066,-8.84378 1.07737,-6.64285 8.85076,-109.79307 8.31441,-110.32942 -0.30669,-0.30669 -2.51372,0.44289 -4.90451,1.66573 -2.3908,1.22284 -8.84691,3.8175 -14.34691,5.76592 -9.59912,3.40055 -10.52115,3.53803 -23,3.42947 -8.06994,-0.0702 -15.1552,-0.68607 -18.68301,-1.62398 -7.06025,-1.87704 -20.11803,-7.49289 -24.93979,-10.72603 -8.40944,-5.63879 -15.59057,-10.95845 -18.68892,-13.84445 -1.82144,-1.69661 -3.7891,-3.08475 -4.37257,-3.08475 -0.58346,0 -3.86777,2.62574 -7.29845,5.83498 -12.1709,11.38527 -29.18068,32.35453 -34.53218,42.57047 -1.4678,2.802 -4.57347,8.57182 -6.9015,12.82182 -4.94437,9.02632 -4.93746,9.08897 2.1812,19.77273 11.71067,17.57549 25.10175,30.97464 39.23522,39.25885 3.85,2.25665 7.675,4.64545 8.5,5.30844 4.34771,3.49395 29.55911,12.02691 39.5,13.36904 12.01795,1.62255 27.43013,1.11153 40.56635,-1.34504 z M 399.39417,492.30277 c 6.25513,-17.73986 18.55278,-37.04621 34.82453,-54.6718 l 8.57992,-9.29379 -2.36779,-3.48452 c -5.28817,-7.78224 -12.57919,-22.85437 -15.38294,-31.79989 -2.69266,-8.59112 -5.01599,-19.61083 -8.01166,-38 -1.56929,-9.63325 -3.58604,-38.33113 -2.83184,-40.29654 1.43706,-3.74492 23.94468,-1.68448 47.21645,4.32239 17.68965,4.56603 23.08651,6.59565 44.5,16.73532 6.24277,2.95606 22.93634,13.79708 33.81408,21.9593 8.29238,6.22227 6.86686,6.17463 22.41635,0.74912 10.2007,-3.55921 10.75531,-3.89771 11.23431,-6.85681 0.85891,-5.30594 6.53526,-65.94917 6.53526,-69.81931 0,-4.38186 0.39155,-4.22469 -15.5,-6.22186 -44.69629,-5.61721 -98.6241,-4.4432 -137.5,2.99337 -4.125,0.78907 -8.99724,1.43475 -10.8272,1.43485 l -3.3272,1.7e-4 0.25658,-16.75 0.25657,-16.75 -12.42937,0 -12.42938,0 -0.27053,20.19575 -0.27054,20.19575 -8.72946,2.58738 c -21.33821,6.32457 -48.06423,16.99848 -63.145,25.21901 -12.2961,6.70261 -30.16131,18.91993 -41.29231,28.2382 -26.76679,22.40771 -45.31761,51.55341 -50.78666,79.79231 -2.27176,11.73001 -1.37703,14.75583 1.93639,6.54853 8.6562,-21.44128 24.52182,-44.37617 41.99058,-60.70039 2.98786,-2.7921 6.15318,-5.76686 7.03404,-6.61058 0.88087,-0.84372 5.63625,-4.41638 10.56753,-7.93925 4.93128,-3.52286 10.09096,-7.41188 11.46596,-8.64226 6.02279,-5.38933 37.23064,-19.85406 51.5,-23.87007 3.3,-0.92876 8.7,-2.54187 12,-3.58468 5.45214,-1.7229 20.56129,-4.95114 23,-4.91422 4.08631,0.0619 3.97486,-1.92979 4.51571,80.69753 l 0.51572,78.78699 3.32236,12.988 c 3.14566,12.29724 3.84396,14.512 4.57556,14.512 0.17122,0 1.54101,-3.4875 3.04398,-7.75 z"
         style="fill:#a1a1a1" />
      <path
         sodipodi:nodetypes="cssssssssssssscccccccccccssssssscssssssssssssssssssssssssssssssccssssssscsssscssscssssssscssssssssssssssssscsscssssssssssscscsss"
         inkscape:connector-curvature="0"
         id="path1904"
         d="m 382.92084,691.04648 c -33.48679,-3.40252 -72.25798,-17.80481 -99.5,-36.96115 -7.10067,-4.99312 -23.39239,-18.22399 -27.31717,-22.18487 -9.03729,-9.12044 -17.7161,-19.96327 -30.45814,-38.05275 -3.03468,-4.30823 -10.53517,-18.80863 -11.79094,-22.79494 -0.70775,-2.24667 -3.23587,-9.0785 -7.58604,-20.5 -0.83793,-2.2 -1.89855,-5.8 -2.35693,-8 -0.45838,-2.2 -1.58069,-7.6 -2.49402,-12 -1.13234,-5.45513 -1.8294,-15.32581 -2.19126,-31.02922 -0.51604,-22.39468 -0.0518,-29.08776 2.80727,-40.47078 0.62164,-2.475 1.46724,-13.275 1.87911,-24 0.81193,-21.14258 2.15864,-28.29429 7.94563,-42.19524 7.24135,-17.39451 17.2723,-31.83345 34.44025,-49.57464 31.35486,-32.40181 61.92545,-51.25042 109.12224,-67.28044 l 14,-4.755 0.27465,-17.33801 0.27464,-17.33802 4.68777,-4.75932 4.68776,-4.75933 21.57518,0 21.57518,0 4.675,4.75 4.675,4.75 0.28741,10 0.28741,10 6,-0.0338 c 3.3,-0.0186 12.975,-0.63255 21.5,-1.3643 21.13136,-1.81383 90.55128,-0.97421 107,1.29414 13.77343,1.89942 19.62707,2.01643 20.61856,0.41217 0.40512,-0.65551 1.34323,-14.04301 2.08469,-29.75 1.16105,-24.59572 1.58179,-28.73352 3.03237,-29.82193 1.29222,-0.96959 9.02613,-1.20237 33.22433,-1 l 31.54005,0.26376 -0.29658,7.5 c -0.16312,4.125 -4.86362,36.6395 -10.44556,72.25444 -7.79665,49.74566 -9.87555,65.02787 -8.96927,65.93415 0.90627,0.90627 3.21145,0.88589 9.94556,-0.0879 27.43267,-3.96703 71.93325,-4.7752 97.26585,-1.76644 22.27307,2.64537 30.40772,3.85787 31.5,4.69516 0.55,0.42161 3.41769,1.47961 6.37265,2.35111 10.40839,3.06975 28.37112,14.74255 36.58086,23.7715 4.32573,4.75738 10.54649,12.60613 10.54649,13.30653 0,0.24267 1.31579,2.39084 2.92397,4.77371 4.63837,6.87277 10.5289,21.34857 13.40561,32.9439 5.36124,21.60993 5.44715,48.24624 0.22209,68.86395 -7.15806,28.24517 -9.9357,36.00612 -20.12293,56.22494 -12.92909,25.66068 -39.03298,57.41 -59.92874,72.8894 -4.4,3.25948 -9.8,7.28165 -12,8.93815 -9.63152,7.25209 -29.99834,17.85144 -43,22.37816 -2.75,0.95745 -5.9,2.10069 -7,2.54052 -24.619,9.84384 -61.79801,9.02239 -85.74678,-1.89451 -2.61073,-1.19009 -5.76073,-2.60989 -7,-3.15511 -1.23927,-0.54523 -3.60322,-1.87796 -5.25322,-2.96163 -1.65,-1.08367 -3.93463,-2.38624 -5.07696,-2.89461 -1.14232,-0.50837 -6.91069,-5.65375 -12.81859,-11.43418 -5.90791,-5.78043 -11.44031,-10.77798 -12.29423,-11.10566 -1.05473,-0.40474 -4.15918,2.0615 -9.6814,7.69114 -9.01464,9.18998 -17.73448,17.04475 -22.8006,20.53865 -1.83052,1.26243 -6.06704,4.28936 -9.41448,6.7265 -3.34745,2.43715 -12.79745,7.84914 -21,12.02665 -14.94043,7.60907 -18.59683,9.19379 -27.91374,12.09807 -2.75,0.85724 -6.575,2.16528 -8.5,2.90676 -4.89716,1.8863 -18.96921,5.20598 -29.56342,6.97417 -10.67568,1.78178 -52.06254,2.72352 -64.43658,1.46622 z m 157.5,-106.8271 c 11.67978,-2.51823 16.33986,-4.56253 16.92044,-7.42271 0.59058,-2.90946 8.63502,-106.22306 8.60353,-110.4939 -0.0272,-3.69126 -0.81313,-3.92751 -5.31721,-1.59836 -1.75666,0.9084 -8.37181,3.46378 -14.70034,5.67862 -11.11013,3.88829 -11.91971,4.02288 -23.50642,3.90788 -22.91705,-0.22744 -38.4618,-6.77525 -60.76212,-25.5944 l -5.76212,-4.86263 -3.23788,2.51342 c -5.51038,4.27746 -15.66081,14.63188 -18.39735,18.76708 -1.43347,2.16612 -2.93463,3.93839 -3.33592,3.93839 -0.69431,0 -6.51312,7.62825 -14.11176,18.5 -4.08572,5.84566 -14.89474,26.62983 -14.88871,28.62884 0.002,0.75414 1.46477,3.67763 3.25,6.49666 8.38175,13.2355 9.19609,14.29171 21.10581,27.3745 5.22458,5.73918 17.34127,15.11839 25.38115,19.64686 3.4326,1.93343 6.47526,3.8942 6.76147,4.35729 0.2862,0.46309 1.94727,1.15538 3.69125,1.53842 1.74399,0.38305 4.70834,1.55998 6.58745,2.61541 4.2661,2.39613 17.5921,6.18541 27.71873,7.88189 8.28691,1.38829 33.93776,0.29622 44,-1.87326 z M 399.98406,494.29191 c 2.92243,-8.87525 8.87956,-20.7392 15.68581,-31.23914 6.86613,-10.59233 11.52703,-16.37601 21.16895,-26.26842 l 7.57172,-7.76842 -1.67622,-2.73158 c -11.00471,-17.93336 -17.20488,-32.29988 -20.26754,-46.96236 -4.01604,-19.22675 -8.63857,-59.97948 -7.22209,-63.67077 0.75015,-1.95487 12.23489,-2.21187 22.56085,-0.50486 7.22675,1.19467 23.13746,4.65344 27.1153,5.89448 1.375,0.42899 4.525,1.32338 7,1.98754 10.30012,2.76402 42.75443,17.75481 49.34351,22.79199 1.96582,1.50282 5.05523,3.74791 6.86535,4.98908 1.81013,1.24118 6.63216,4.72868 10.71563,7.75 4.08347,3.02133 8.17825,5.49332 9.09953,5.49332 2.44146,0 23.96246,-7.58648 25.29169,-8.91571 1.21252,-1.21252 8.88354,-74.40148 8.03097,-76.62324 -0.75403,-1.96497 -2.16418,-2.29252 -20.1995,-4.69188 -14.76151,-1.96382 -21.06482,-2.21468 -55.64718,-2.21468 -40.42297,0 -54.56255,1.04678 -80.07,5.92773 -4.3615,0.83459 -8.62197,1.51751 -9.46771,1.51761 -1.33654,1.5e-4 -1.48443,-2.09359 -1.13044,-16.0033 0.30003,-11.78933 0.0802,-16.39755 -0.83473,-17.5 -1.60524,-1.93419 -23.90315,-2.1905 -25.79712,-0.29653 -0.85228,0.85228 -1.2,6.91989 -1.2,20.93949 l 0,19.73948 -8.75,2.59365 c -50.88118,15.08203 -88.61435,36.44424 -117.87532,66.73377 -16.64181,17.22679 -27.76356,34.87271 -34.28971,54.40451 -3.27241,9.79385 -5.83934,24.98087 -4.71675,27.90628 0.63467,1.65393 0.9444,1.49789 2.67478,-1.3475 1.07635,-1.76991 1.957,-3.70134 1.957,-4.29206 0,-0.59072 2.92566,-6.9043 6.50146,-14.03017 5.69682,-11.35264 9.9372,-17.70875 23.49854,-35.22308 7.58602,-9.79725 33.36649,-31.57545 47.36635,-40.01298 10.92729,-6.58572 33.6121,-16.77243 43.13365,-19.36932 2.2,-0.60003 7.825,-2.25077 12.5,-3.66831 13.92081,-4.22103 24.79405,-5.90644 27.20397,-4.21677 0.11219,0.0786 0.48801,35.91801 0.83517,79.64301 l 0.6312,79.5 3.03528,11.57368 c 3.2264,12.30241 4.85499,16.31591 6.26664,15.44347 0.47955,-0.29638 1.87048,-3.57149 3.09096,-7.27801 z"
         style="fill:#6ec86d" />
      <path
         sodipodi:nodetypes="cssssssssssssscccccccccccssssssscssssssssssssssssssssssssssssssccssssssscsssscssscsssssssssssssssssssssscssssssssssssssssscsscssssssssssscscsss"
         inkscape:connector-curvature="0"
         id="path1902"
         d="m 382.92084,691.04648 c -33.48679,-3.40252 -72.25798,-17.80481 -99.5,-36.96115 -7.10067,-4.99312 -23.39239,-18.22399 -27.31717,-22.18487 -9.03729,-9.12044 -17.7161,-19.96327 -30.45814,-38.05275 -3.03468,-4.30823 -10.53517,-18.80863 -11.79094,-22.79494 -0.70775,-2.24667 -3.23587,-9.0785 -7.58604,-20.5 -0.83793,-2.2 -1.89855,-5.8 -2.35693,-8 -0.45838,-2.2 -1.58069,-7.6 -2.49402,-12 -1.13234,-5.45513 -1.8294,-15.32581 -2.19126,-31.02922 -0.51604,-22.39468 -0.0518,-29.08776 2.80727,-40.47078 0.62164,-2.475 1.46724,-13.275 1.87911,-24 0.81193,-21.14258 2.15864,-28.29429 7.94563,-42.19524 7.24135,-17.39451 17.2723,-31.83345 34.44025,-49.57464 31.35486,-32.40181 61.92545,-51.25042 109.12224,-67.28044 l 14,-4.755 0.27465,-17.33801 0.27464,-17.33802 4.68777,-4.75932 4.68776,-4.75933 21.57518,0 21.57518,0 4.675,4.75 4.675,4.75 0.28741,10 0.28741,10 6,-0.0338 c 3.3,-0.0186 12.975,-0.63255 21.5,-1.3643 21.13136,-1.81383 90.55128,-0.97421 107,1.29414 13.77343,1.89942 19.62707,2.01643 20.61856,0.41217 0.40512,-0.65551 1.34323,-14.04301 2.08469,-29.75 1.16105,-24.59572 1.58179,-28.73352 3.03237,-29.82193 1.29222,-0.96959 9.02613,-1.20237 33.22433,-1 l 31.54005,0.26376 -0.29658,7.5 c -0.16312,4.125 -4.86362,36.6395 -10.44556,72.25444 -7.79665,49.74566 -9.87555,65.02787 -8.96927,65.93415 0.90627,0.90627 3.21145,0.88589 9.94556,-0.0879 27.43267,-3.96703 71.93325,-4.7752 97.26585,-1.76644 22.27307,2.64537 30.40772,3.85787 31.5,4.69516 0.55,0.42161 3.41769,1.47961 6.37265,2.35111 10.40839,3.06975 28.37112,14.74255 36.58086,23.7715 4.32573,4.75738 10.54649,12.60613 10.54649,13.30653 0,0.24267 1.31579,2.39084 2.92397,4.77371 4.63837,6.87277 10.5289,21.34857 13.40561,32.9439 5.36124,21.60993 5.44715,48.24624 0.22209,68.86395 -7.15806,28.24517 -9.9357,36.00612 -20.12293,56.22494 -12.92909,25.66068 -39.03298,57.41 -59.92874,72.8894 -4.4,3.25948 -9.8,7.28165 -12,8.93815 -9.63152,7.25209 -29.99834,17.85144 -43,22.37816 -2.75,0.95745 -5.9,2.10069 -7,2.54052 -24.619,9.84384 -61.79801,9.02239 -85.74678,-1.89451 -2.61073,-1.19009 -5.76073,-2.60989 -7,-3.15511 -1.23927,-0.54523 -3.60322,-1.87796 -5.25322,-2.96163 -1.65,-1.08367 -3.93463,-2.38624 -5.07696,-2.89461 -1.14232,-0.50837 -6.91069,-5.65375 -12.81859,-11.43418 -5.90791,-5.78043 -11.44031,-10.77798 -12.29423,-11.10566 -1.05473,-0.40474 -4.15918,2.0615 -9.6814,7.69114 -9.01464,9.18998 -17.73448,17.04475 -22.8006,20.53865 -1.83052,1.26243 -6.06704,4.28936 -9.41448,6.7265 -3.34745,2.43715 -12.79745,7.84914 -21,12.02665 -14.94043,7.60907 -18.59683,9.19379 -27.91374,12.09807 -2.75,0.85724 -6.575,2.16528 -8.5,2.90676 -4.89716,1.8863 -18.96921,5.20598 -29.56342,6.97417 -10.67568,1.78178 -52.06254,2.72352 -64.43658,1.46622 z m 157.5,-106.8271 c 11.67978,-2.51823 16.33986,-4.56253 16.92044,-7.42271 0.59058,-2.90946 8.63502,-106.22306 8.60353,-110.4939 -0.0272,-3.69126 -0.81313,-3.92751 -5.31721,-1.59836 -1.75666,0.9084 -8.37181,3.46378 -14.70034,5.67862 -11.11013,3.88829 -11.91971,4.02288 -23.50642,3.90788 -22.91705,-0.22744 -38.4618,-6.77525 -60.76212,-25.5944 l -5.76212,-4.86263 -3.23788,2.51342 c -5.51038,4.27746 -15.66081,14.63188 -18.39735,18.76708 -1.43347,2.16612 -2.93463,3.93839 -3.33592,3.93839 -0.69431,0 -6.51312,7.62825 -14.11176,18.5 -4.08572,5.84566 -14.89474,26.62983 -14.88871,28.62884 0.002,0.75414 1.46477,3.67763 3.25,6.49666 8.38175,13.2355 9.19609,14.29171 21.10581,27.3745 5.22458,5.73918 17.34127,15.11839 25.38115,19.64686 3.4326,1.93343 6.47526,3.8942 6.76147,4.35729 0.2862,0.46309 1.94727,1.15538 3.69125,1.53842 1.74399,0.38305 4.70834,1.55998 6.58745,2.61541 4.2661,2.39613 17.5921,6.18541 27.71873,7.88189 8.28691,1.38829 33.93776,0.29622 44,-1.87326 z m 148.5,-59.03798 c 21.40943,-6.36855 32.41605,-14.21291 39.46797,-28.12863 4.30833,-8.50171 6.98733,-20.51016 6.08804,-27.2893 -0.77654,-5.85388 -3.86376,-13.81211 -7.06442,-18.2107 -1.20064,-1.65 -2.94821,-4.62327 -3.88349,-6.60727 -2.40487,-5.10138 -17.88718,-21.94683 -25.6081,-27.86275 -3.575,-2.73924 -7.71517,-5.90731 -9.20038,-7.04017 -3.13913,-2.3944 -17.49422,-9.17155 -30.34469,-14.32596 -15.81681,-6.34423 -40.47983,-11.32158 -50.39617,-10.17067 -4.91425,0.57036 -5.97179,1.04014 -6.40453,2.84499 -3.74991,15.64023 -3.37214,47.93151 0.78573,67.16183 3.57005,16.51162 4.88843,20.2604 11.86716,33.74406 4.74115,9.16039 7.59007,13.28295 12.94979,18.73913 10.22585,10.40988 16.85948,14.4341 30.74309,18.64996 6.03447,1.8324 22.4624,1.03511 31,-1.50452 z M 399.98406,494.29191 c 2.92243,-8.87525 8.87956,-20.7392 15.68581,-31.23914 6.86613,-10.59233 11.52703,-16.37601 21.16895,-26.26842 l 7.57172,-7.76842 -1.67622,-2.73158 c -11.00471,-17.93336 -17.20488,-32.29988 -20.26754,-46.96236 -4.01604,-19.22675 -8.63857,-59.97948 -7.22209,-63.67077 0.75015,-1.95487 12.23489,-2.21187 22.56085,-0.50486 7.22675,1.19467 23.13746,4.65344 27.1153,5.89448 1.375,0.42899 4.525,1.32338 7,1.98754 10.30012,2.76402 42.75443,17.75481 49.34351,22.79199 1.96582,1.50282 5.05523,3.74791 6.86535,4.98908 1.81013,1.24118 6.63216,4.72868 10.71563,7.75 4.08347,3.02133 8.17825,5.49332 9.09953,5.49332 2.44146,0 23.96246,-7.58648 25.29169,-8.91571 1.21252,-1.21252 8.88354,-74.40148 8.03097,-76.62324 -0.75403,-1.96497 -2.16418,-2.29252 -20.1995,-4.69188 -14.76151,-1.96382 -21.06482,-2.21468 -55.64718,-2.21468 -40.42297,0 -54.56255,1.04678 -80.07,5.92773 -4.3615,0.83459 -8.62197,1.51751 -9.46771,1.51761 -1.33654,1.5e-4 -1.48443,-2.09359 -1.13044,-16.0033 0.30003,-11.78933 0.0802,-16.39755 -0.83473,-17.5 -1.60524,-1.93419 -23.90315,-2.1905 -25.79712,-0.29653 -0.85228,0.85228 -1.2,6.91989 -1.2,20.93949 l 0,19.73948 -8.75,2.59365 c -50.88118,15.08203 -88.61435,36.44424 -117.87532,66.73377 -16.64181,17.22679 -27.76356,34.87271 -34.28971,54.40451 -3.27241,9.79385 -5.83934,24.98087 -4.71675,27.90628 0.63467,1.65393 0.9444,1.49789 2.67478,-1.3475 1.07635,-1.76991 1.957,-3.70134 1.957,-4.29206 0,-0.59072 2.92566,-6.9043 6.50146,-14.03017 5.69682,-11.35264 9.9372,-17.70875 23.49854,-35.22308 7.58602,-9.79725 33.36649,-31.57545 47.36635,-40.01298 10.92729,-6.58572 33.6121,-16.77243 43.13365,-19.36932 2.2,-0.60003 7.825,-2.25077 12.5,-3.66831 13.92081,-4.22103 24.79405,-5.90644 27.20397,-4.21677 0.11219,0.0786 0.48801,35.91801 0.83517,79.64301 l 0.6312,79.5 3.03528,11.57368 c 3.2264,12.30241 4.85499,16.31591 6.26664,15.44347 0.47955,-0.29638 1.87048,-3.57149 3.09096,-7.27801 z"
         style="fill:#446899" />
      <path
         sodipodi:nodetypes="cssssssssssssscccccccccccssssssscssssssssssssssssssssssssssssssccssssssssssssssssssssssscccsssssssscccsssssscssssssssssssssscsssscssscsssssssssssssssssssssscssssssssssssssssscsscssssssssssscscsssssssssssssssssscssssssssss"
         inkscape:connector-curvature="0"
         id="path1900"
         d="m 382.92084,691.04648 c -33.48679,-3.40252 -72.25798,-17.80481 -99.5,-36.96115 -7.10067,-4.99312 -23.39239,-18.22399 -27.31717,-22.18487 -9.03729,-9.12044 -17.7161,-19.96327 -30.45814,-38.05275 -3.03468,-4.30823 -10.53517,-18.80863 -11.79094,-22.79494 -0.70775,-2.24667 -3.23587,-9.0785 -7.58604,-20.5 -0.83793,-2.2 -1.89855,-5.8 -2.35693,-8 -0.45838,-2.2 -1.58069,-7.6 -2.49402,-12 -1.13234,-5.45513 -1.8294,-15.32581 -2.19126,-31.02922 -0.51604,-22.39468 -0.0518,-29.08776 2.80727,-40.47078 0.62164,-2.475 1.46724,-13.275 1.87911,-24 0.81193,-21.14258 2.15864,-28.29429 7.94563,-42.19524 7.24135,-17.39451 17.2723,-31.83345 34.44025,-49.57464 31.35486,-32.40181 61.92545,-51.25042 109.12224,-67.28044 l 14,-4.755 0.27465,-17.33801 0.27464,-17.33802 4.68777,-4.75932 4.68776,-4.75933 21.57518,0 21.57518,0 4.675,4.75 4.675,4.75 0.28741,10 0.28741,10 6,-0.0338 c 3.3,-0.0186 12.975,-0.63255 21.5,-1.3643 21.13136,-1.81383 90.55128,-0.97421 107,1.29414 13.77343,1.89942 19.62707,2.01643 20.61856,0.41217 0.40512,-0.65551 1.34323,-14.04301 2.08469,-29.75 1.16105,-24.59572 1.58179,-28.73352 3.03237,-29.82193 1.29222,-0.96959 9.02613,-1.20237 33.22433,-1 l 31.54005,0.26376 -0.29658,7.5 c -0.16312,4.125 -4.86362,36.6395 -10.44556,72.25444 -7.79665,49.74566 -9.87555,65.02787 -8.96927,65.93415 0.90627,0.90627 3.21145,0.88589 9.94556,-0.0879 27.43267,-3.96703 71.93325,-4.7752 97.26585,-1.76644 22.27307,2.64537 30.40772,3.85787 31.5,4.69516 0.55,0.42161 3.41769,1.47961 6.37265,2.35111 10.40839,3.06975 28.37112,14.74255 36.58086,23.7715 4.32573,4.75738 10.54649,12.60613 10.54649,13.30653 0,0.24267 1.31579,2.39084 2.92397,4.77371 4.63837,6.87277 10.5289,21.34857 13.40561,32.9439 5.36124,21.60993 5.44715,48.24624 0.22209,68.86395 -7.15806,28.24517 -9.9357,36.00612 -20.12293,56.22494 -12.92909,25.66068 -39.03298,57.41 -59.92874,72.8894 -4.4,3.25948 -9.8,7.28165 -12,8.93815 -9.63152,7.25209 -29.99834,17.85144 -43,22.37816 -2.75,0.95745 -5.9,2.10069 -7,2.54052 -24.619,9.84384 -61.79801,9.02239 -85.74678,-1.89451 -2.61073,-1.19009 -5.76073,-2.60989 -7,-3.15511 -1.23927,-0.54523 -3.60322,-1.87796 -5.25322,-2.96163 -1.65,-1.08367 -3.93463,-2.38624 -5.07696,-2.89461 -1.14232,-0.50837 -6.91069,-5.65375 -12.81859,-11.43418 -5.90791,-5.78043 -11.44031,-10.77798 -12.29423,-11.10566 -1.05473,-0.40474 -4.15918,2.0615 -9.6814,7.69114 -9.01464,9.18998 -17.73448,17.04475 -22.8006,20.53865 -1.83052,1.26243 -6.06704,4.28936 -9.41448,6.7265 -3.34745,2.43715 -12.79745,7.84914 -21,12.02665 -14.94043,7.60907 -18.59683,9.19379 -27.91374,12.09807 -2.75,0.85724 -6.575,2.16528 -8.5,2.90676 -4.89716,1.8863 -18.96921,5.20598 -29.56342,6.97417 -10.67568,1.78178 -52.06254,2.72352 -64.43658,1.46622 z m 60.43658,-15.49419 c 10.48058,-1.71643 24.59695,-5.0332 29.56342,-6.9462 1.925,-0.74148 5.75,-2.04976 8.5,-2.9073 7.91728,-2.46884 11.75816,-3.99658 15.50808,-6.16847 1.92056,-1.11234 5.74192,-3.09581 8.49192,-4.4077 10.67135,-5.09077 13.09767,-6.44606 19.25376,-10.75471 2.99804,-2.09833 6.92681,-5.05264 8.73062,-6.56514 1.80381,-1.5125 3.53698,-2.75 3.8515,-2.75 1.60402,0 25.40829,-23.25999 28.39189,-27.74271 0.93518,-1.40507 1.2479,-3.21808 0.83728,-4.85414 -0.73698,-2.93635 -1.741,-2.94419 -13.06505,-0.10197 -12.45573,3.12626 -23.74422,3.95792 -46.11437,3.39743 -14.72829,-0.36903 -23.68432,-1.03738 -27.38563,-2.04368 -3.025,-0.82243 -8.04299,-2.18892 -11.15109,-3.03666 -3.1081,-0.84773 -7.28428,-2.45864 -9.28041,-3.5798 -1.99614,-1.12116 -4.34194,-2.03847 -5.21289,-2.03847 -0.87096,0 -4.83255,-2.025 -8.80352,-4.5 -3.97098,-2.475 -7.66049,-4.5 -8.19893,-4.5 -0.53844,0 -2.27236,-1.35 -3.85316,-3 -1.5808,-1.65 -3.46549,-3 -4.18821,-3 -2.08531,0 -27.34113,-25.68537 -33.92303,-34.5 -6.81907,-9.13226 -15.6253,-24.13615 -17.96573,-30.60967 -0.873,-2.41468 -3.21641,-10.46533 -5.20758,-17.89033 l -3.62031,-13.5 -0.54757,-71.5 -0.54757,-71.5 -4.5,0.32765 c -7.71633,0.56183 -20.57342,5.393 -38.68997,14.53811 -12.70917,6.4155 -14.37192,7.35184 -16.66695,9.38569 -1.17869,1.04456 -5.29308,4.10519 -9.14308,6.8014 -9.356,6.55215 -22.44024,18.16297 -23.45396,20.8128 -0.44908,1.17389 -1.82602,3.03435 -3.05986,4.13435 -7.42885,6.623 -20.29224,28.25624 -28.54139,48 -0.91918,2.2 -4.1937,6.5875 -7.27671,9.75 l -5.60547,5.75 -7.1719,0 -7.1719,0 -0.50741,3.25 c -0.27907,1.7875 -1.0575,6.4 -1.72983,10.25 -1.63698,9.37388 -0.68677,42.14977 1.53652,53 0.9016,4.4 2.00709,9.8 2.45665,12 0.44957,2.2 2.02995,7.15 3.51196,11 1.482,3.85 3.07847,8.125 3.54771,9.5 2.72013,7.97085 6.69458,16.71447 7.95044,17.49064 0.55833,0.34506 1.01515,1.2599 1.01515,2.03296 0,1.42199 0.97118,2.90899 11.16429,17.09388 5.35024,7.44549 15.39975,19.43804 21.55455,25.72208 5.40975,5.52334 31.19147,25.66044 32.8533,25.66044 0.31213,0 2.44859,1.25395 4.74768,2.78654 3.58947,2.39277 14.70779,8.0023 25.18018,12.70417 13.27159,5.95863 40.17517,12.74387 57.5,14.50183 11.67177,1.18434 45.56308,0.28775 56.43658,-1.49302 z m 97.06342,-91.33291 c 11.67978,-2.51823 16.33986,-4.56253 16.92044,-7.42271 0.59058,-2.90946 8.63502,-106.22306 8.60353,-110.4939 -0.0272,-3.69126 -0.81313,-3.92751 -5.31721,-1.59836 -1.75666,0.9084 -8.37181,3.46378 -14.70034,5.67862 -11.11013,3.88829 -11.91971,4.02288 -23.50642,3.90788 -22.91705,-0.22744 -38.4618,-6.77525 -60.76212,-25.5944 l -5.76212,-4.86263 -3.23788,2.51342 c -5.51038,4.27746 -15.66081,14.63188 -18.39735,18.76708 -1.43347,2.16612 -2.93463,3.93839 -3.33592,3.93839 -0.69431,0 -6.51312,7.62825 -14.11176,18.5 -4.08572,5.84566 -14.89474,26.62983 -14.88871,28.62884 0.002,0.75414 1.46477,3.67763 3.25,6.49666 8.38175,13.2355 9.19609,14.29171 21.10581,27.3745 5.22458,5.73918 17.34127,15.11839 25.38115,19.64686 3.4326,1.93343 6.47526,3.8942 6.76147,4.35729 0.2862,0.46309 1.94727,1.15538 3.69125,1.53842 1.74399,0.38305 4.70834,1.55998 6.58745,2.61541 4.2661,2.39613 17.5921,6.18541 27.71873,7.88189 8.28691,1.38829 33.93776,0.29622 44,-1.87326 z m 148.5,-59.03798 c 21.40943,-6.36855 32.41605,-14.21291 39.46797,-28.12863 4.30833,-8.50171 6.98733,-20.51016 6.08804,-27.2893 -0.77654,-5.85388 -3.86376,-13.81211 -7.06442,-18.2107 -1.20064,-1.65 -2.94821,-4.62327 -3.88349,-6.60727 -2.40487,-5.10138 -17.88718,-21.94683 -25.6081,-27.86275 -3.575,-2.73924 -7.71517,-5.90731 -9.20038,-7.04017 -3.13913,-2.3944 -17.49422,-9.17155 -30.34469,-14.32596 -15.81681,-6.34423 -40.47983,-11.32158 -50.39617,-10.17067 -4.91425,0.57036 -5.97179,1.04014 -6.40453,2.84499 -3.74991,15.64023 -3.37214,47.93151 0.78573,67.16183 3.57005,16.51162 4.88843,20.2604 11.86716,33.74406 4.74115,9.16039 7.59007,13.28295 12.94979,18.73913 10.22585,10.40988 16.85948,14.4341 30.74309,18.64996 6.03447,1.8324 22.4624,1.03511 31,-1.50452 z M 399.98406,494.29191 c 2.92243,-8.87525 8.87956,-20.7392 15.68581,-31.23914 6.86613,-10.59233 11.52703,-16.37601 21.16895,-26.26842 l 7.57172,-7.76842 -1.67622,-2.73158 c -11.00471,-17.93336 -17.20488,-32.29988 -20.26754,-46.96236 -4.01604,-19.22675 -8.63857,-59.97948 -7.22209,-63.67077 0.75015,-1.95487 12.23489,-2.21187 22.56085,-0.50486 7.22675,1.19467 23.13746,4.65344 27.1153,5.89448 1.375,0.42899 4.525,1.32338 7,1.98754 10.30012,2.76402 42.75443,17.75481 49.34351,22.79199 1.96582,1.50282 5.05523,3.74791 6.86535,4.98908 1.81013,1.24118 6.63216,4.72868 10.71563,7.75 4.08347,3.02133 8.17825,5.49332 9.09953,5.49332 2.44146,0 23.96246,-7.58648 25.29169,-8.91571 1.21252,-1.21252 8.88354,-74.40148 8.03097,-76.62324 -0.75403,-1.96497 -2.16418,-2.29252 -20.1995,-4.69188 -14.76151,-1.96382 -21.06482,-2.21468 -55.64718,-2.21468 -40.42297,0 -54.56255,1.04678 -80.07,5.92773 -4.3615,0.83459 -8.62197,1.51751 -9.46771,1.51761 -1.33654,1.5e-4 -1.48443,-2.09359 -1.13044,-16.0033 0.30003,-11.78933 0.0802,-16.39755 -0.83473,-17.5 -1.60524,-1.93419 -23.90315,-2.1905 -25.79712,-0.29653 -0.85228,0.85228 -1.2,6.91989 -1.2,20.93949 l 0,19.73948 -8.75,2.59365 c -50.88118,15.08203 -88.61435,36.44424 -117.87532,66.73377 -16.64181,17.22679 -27.76356,34.87271 -34.28971,54.40451 -3.27241,9.79385 -5.83934,24.98087 -4.71675,27.90628 0.63467,1.65393 0.9444,1.49789 2.67478,-1.3475 1.07635,-1.76991 1.957,-3.70134 1.957,-4.29206 0,-0.59072 2.92566,-6.9043 6.50146,-14.03017 5.69682,-11.35264 9.9372,-17.70875 23.49854,-35.22308 7.58602,-9.79725 33.36649,-31.57545 47.36635,-40.01298 10.92729,-6.58572 33.6121,-16.77243 43.13365,-19.36932 2.2,-0.60003 7.825,-2.25077 12.5,-3.66831 13.92081,-4.22103 24.79405,-5.90644 27.20397,-4.21677 0.11219,0.0786 0.48801,35.91801 0.83517,79.64301 l 0.6312,79.5 3.03528,11.57368 c 3.2264,12.30241 4.85499,16.31591 6.26664,15.44347 0.47955,-0.29638 1.87048,-3.57149 3.09096,-7.27801 z m 139.60537,-46.25838 c 9.58773,-3.36514 20.40909,-8.89519 25.30736,-12.93284 3.31039,-2.72875 3.49384,-3.21927 3.85129,-10.29788 0.30397,-6.01946 -0.0132,-8.19422 -1.66812,-11.43814 -1.92985,-3.78282 -9.4157,-11.35488 -16.77465,-16.96782 -3.23692,-2.46891 -3.42642,-2.49302 -8.09947,-1.03014 -2.63175,0.82386 -5.685,1.74027 -6.785,2.03646 -8.39912,2.26161 -31.07413,12.62683 -43,19.6562 -2.75,1.6209 -6.35,3.6829 -8,4.5822 -3.19128,1.73936 -9.5,7.3597 -9.5,8.4634 0,1.28489 11.61042,9.35938 19.5,13.56132 7.13436,3.79971 12.88002,6.14023 19,7.73973 4.53873,1.18623 18.19428,-0.57363 26.16859,-3.37249 z m -71.80737,-39.8345 c 9.14276,-7.59549 25.95114,-18.17278 45.48678,-28.62422 l 8.84801,-4.73362 -4.84801,-3.34462 c -2.6664,-1.83954 -6.423,-4.52883 -8.348,-5.9762 -6.30928,-4.74382 -36.87811,-18.74057 -47,-21.52019 -2.475,-0.67967 -6.42823,-1.84588 -8.78495,-2.59159 -2.35672,-0.7457 -5.1988,-1.35582 -6.31574,-1.35582 -1.11694,0 -2.93637,-0.48465 -4.04319,-1.077 -4.26984,-2.28515 -4.6177,-0.86373 -2.74771,11.22784 2.51818,16.28285 4.69249,25.9588 7.91568,35.22587 3.09054,8.88567 12.53241,26.62329 14.17178,26.62329 0.56461,0 3.11402,-1.73418 5.66535,-3.85374 z"
         style="fill:#5a5b5a" />
      <path
         sodipodi:nodetypes="ssssssssssssssssscccccccsssssssscssssssssssssssssssssssscsssssssssssssscsssssscccsssssssssssssssscssssssssscsssssssssssssssssssssssssssssscscssccssssssssssssscscsscsssssssssssssscsccssssssssscsssssssssssssssssssssss"
         inkscape:connector-curvature="0"
         id="path1898"
         d="m 382.92084,690.04648 c -33.48679,-3.40252 -72.25798,-17.80481 -99.5,-36.96115 -6.77335,-4.76295 -23.35193,-18.19177 -26.78116,-21.693 -9.06368,-9.254 -17.54132,-19.86572 -29.99415,-37.54462 -3.03468,-4.30823 -10.53517,-18.80863 -11.79094,-22.79494 -0.70775,-2.24667 -3.23587,-9.0785 -7.58604,-20.5 -0.83793,-2.2 -1.89797,-5.8 -2.35565,-8 -0.45768,-2.2 -1.62586,-7.825 -2.59595,-12.5 -1.40863,-6.7884 -1.77712,-13.73549 -1.82996,-34.5 -0.064,-25.14598 0.76359,-34.48254 3.52214,-39.73643 0.50144,-0.95504 0.91171,-8.89283 0.91171,-17.63953 0,-23.88665 3.26895,-37.6583 13.50725,-56.90432 6.67644,-12.5504 14.47947,-22.92015 27.42462,-36.44562 26.44383,-27.62929 55.10609,-46.96716 89.95847,-60.69324 7.17387,-2.82532 17.4458,-6.54247 22.82652,-8.26035 5.38073,-1.71787 10.34564,-3.56036 11.03314,-4.0944 0.91336,-0.7095 1.25,-5.57347 1.25,-18.0607 l 0,-17.08971 4.20821,-4.28785 4.20821,-4.28785 21.50394,0 21.50394,0 4.28785,4.20821 4.28785,4.20821 0,9.66934 c 0,7.49782 0.34678,9.95715 1.54412,10.95086 1.25682,1.04306 4.28028,1.01933 16.25,-0.12756 22.41729,-2.14794 100.46043,-1.89156 117.36904,0.38556 15.79945,2.12775 20.21685,2.15734 21.88562,0.14661 0.91335,-1.10052 1.69589,-9.98337 2.66183,-30.21533 0.95644,-20.03269 1.73249,-28.88808 2.57878,-29.42591 0.66584,-0.42315 15.26737,-0.77626 32.44786,-0.78468 l 31.23724,-0.0153 -0.59535,7.75 c -0.32745,4.2625 -5.05811,36.1 -10.51259,70.75 -5.45449,34.65 -9.79334,64.125 -9.6419,65.5 0.36392,3.30416 3.335,3.6114 15.69203,1.62271 14.72803,-2.37026 45.66668,-3.91849 64.08332,-3.20684 21.40615,0.82716 58.19821,4.84906 60.5,6.61351 0.55,0.42161 3.41769,1.47961 6.37265,2.35111 12.39789,3.65651 29.23243,15.37439 39.4039,27.42755 3.6979,4.382 6.72345,8.22027 6.72345,8.52949 0,0.30921 1.31579,2.51183 2.92397,4.8947 4.63837,6.87277 10.5289,21.34857 13.40561,32.9439 5.36124,21.60993 5.44715,48.24624 0.22209,68.86395 -7.15806,28.24517 -9.9357,36.00612 -20.12293,56.22494 -12.88012,25.56348 -38.37244,56.66267 -58.92874,71.88973 -4.4,3.2593 -9.8,7.28132 -12,8.93782 -9.63152,7.25209 -29.99834,17.85144 -43,22.37816 -2.75,0.95745 -5.9,2.10069 -7,2.54052 -24.619,9.84384 -61.79801,9.02239 -85.74678,-1.89451 -2.61073,-1.19009 -5.76073,-2.60989 -7,-3.15511 -1.23927,-0.54523 -3.60322,-1.87796 -5.25322,-2.96163 -1.65,-1.08367 -3.92605,-2.38298 -5.05789,-2.88736 -1.13183,-0.50438 -6.75683,-5.55723 -12.5,-11.22856 -5.74316,-5.67133 -11.31231,-10.77784 -12.37589,-11.34779 -3.60601,-1.93242 -8.89393,-10.43926 -8.75678,-14.08733 0.0725,-1.92931 -0.56985,-4.06651 -1.50264,-4.9993 -1.73118,-1.73118 -2.64752,-1.66949 -12.8068,0.86224 -12.51952,3.1199 -23.77408,3.94646 -46.11437,3.38671 -14.72829,-0.36903 -23.68432,-1.03738 -27.38563,-2.04368 -3.025,-0.82243 -8.10122,-2.20409 -11.2805,-3.07036 -3.17927,-0.86627 -7.54885,-2.47719 -9.71016,-3.57981 -2.16132,-1.10262 -4.44888,-2.00476 -5.08348,-2.00476 -0.6346,0 -4.4028,-2.025 -8.37377,-4.5 -3.97098,-2.475 -7.57278,-4.5 -8.00401,-4.5 -0.43123,0 -2.27536,-1.2375 -4.09808,-2.75 -1.82271,-1.5125 -5.39417,-4.325 -7.93657,-6.25 -6.62294,-5.01462 -21.99162,-21.14715 -29.05586,-30.5 -6.81656,-9.02494 -15.65339,-24.02351 -18.03454,-30.60967 -0.873,-2.41468 -3.21763,-10.46533 -5.21029,-17.89033 l -3.62302,-13.5 -0.33909,-70.95083 c -0.23205,-48.55324 -0.67766,-71.35879 -1.41162,-72.24315 -2.71289,-3.26883 -21.2475,2.71443 -43.33901,13.99049 -25.62135,13.07778 -44.48991,29.09692 -62.66712,53.20349 -4.05738,5.38089 -14.97923,26.33343 -19.35527,37.13128 -0.92086,2.2722 -3.99253,6.41541 -6.82595,9.20712 l -5.15166,5.07586 -7.4861,0.29287 -7.48609,0.29287 -0.75822,4 c -0.41702,2.2 -1.26497,6.925 -1.88433,10.5 -1.53998,8.88887 -0.50865,42.04906 1.63283,52.5 0.9016,4.4 2.00709,9.8 2.45665,12 0.44957,2.2 2.03189,7.15 3.51627,11 1.48438,3.85 3.10768,8.39145 3.60734,10.0921 1.73395,5.90179 12.53626,25.94764 17.95435,33.31792 2.99601,4.07551 8.1473,10.51472 11.4473,14.30936 3.3,3.79464 7.125,8.37668 8.5,10.18232 2.85041,3.74314 8.09533,8.48547 19.32426,17.47256 30.63612,24.51966 68.52928,39.60269 108.67574,43.25739 26.04902,2.37135 65.17277,-1.67629 83,-8.58695 1.925,-0.74622 6.04174,-2.10154 9.1483,-3.01182 7.15875,-2.09763 37.11968,-17.15954 43.51566,-21.8761 10.77448,-7.94538 12.5717,-9.33608 17.59862,-13.6179 2.88058,-2.45361 8.9307,-8.23502 13.44471,-12.84757 4.514,-4.61255 8.65024,-8.23005 9.19163,-8.03888 0.54139,0.19116 2.32701,2.35243 3.96805,4.80282 3.59708,5.37112 3.40382,5.9039 -5.25458,14.48613 -16.71488,16.56783 -30.54459,26.58793 -51.25366,37.13505 -14.88701,7.58195 -18.54524,9.16692 -27.85873,12.07013 -2.75,0.85724 -6.575,2.16528 -8.5,2.90676 -4.89716,1.8863 -18.96921,5.20598 -29.56342,6.97417 -10.67568,1.78178 -52.06254,2.72352 -64.43658,1.46621 z m 157.5,-104.8271 c 11.24389,-2.42425 16.31768,-4.58907 17.44738,-7.44425 0.84034,-2.12383 9.12159,-104.24824 9.07504,-111.91334 -0.0289,-4.74991 -1.07706,-5.29935 -5.32661,-2.79205 -1.90175,1.12206 -8.7988,3.90765 -15.32677,6.19019 -11.51481,4.02622 -12.22718,4.14652 -23.86904,4.03098 -14.72314,-0.14612 -23.86801,-2.33703 -36.5241,-8.75035 -6.6333,-3.36135 -18.96618,-11.97747 -24.93588,-17.42095 -2.45298,-2.23676 -4.7551,-4.06684 -5.11581,-4.06684 -1.38853,0 -15.94136,13.85121 -22.03254,20.97029 -9.00126,10.52027 -19.16743,24.34341 -22.35159,30.39192 -8.92795,16.95922 -10.68378,20.92911 -10.16712,22.98765 0.6943,2.7663 10.46687,17.41884 16.44052,24.65014 6.25905,7.57679 16.48665,17.38502 22.04826,21.14421 10.21087,6.9017 19.89389,12.51279 24.63826,14.27728 2.75,1.02277 5.47578,2.22946 6.0573,2.68156 1.62219,1.26115 17.65739,5.54881 25.9427,6.93682 8.28691,1.38829 33.93776,0.29622 44,-1.87326 z M 686.9097,527.383 c 8.15078,-2.39795 19.95397,-7.10668 24.51663,-9.78058 14.92536,-8.74684 25.82799,-30.36682 24.18517,-47.95933 -0.66533,-7.1249 -2.05954,-10.58897 -8.98498,-22.32416 -11.0474,-18.71986 -29.71177,-35.59467 -50.1274,-45.32114 -5.70871,-2.71976 -10.73213,-4.94502 -11.16315,-4.94502 -0.43103,0 -2.61326,-0.84111 -4.84941,-1.86914 -6.46568,-2.97247 -9.32327,-3.89824 -22.06572,-7.14867 -14.92957,-3.80834 -34.11396,-5.22537 -36.63344,-2.70589 -2.32302,2.32302 -3.91621,16.81258 -3.98294,36.2237 -0.0493,14.34179 0.34682,19.09638 2.53337,30.40696 4.1637,21.53804 5.85,26.19951 16.14553,44.63135 3.98723,7.13824 14.09202,17.69759 22.17078,23.16813 5.20789,3.52653 16.78403,8.32343 23.2667,9.64122 4.32006,0.87817 19.24117,-0.32645 24.98886,-2.01743 z M 401.39057,493.4378 c 6.75946,-18.94794 19.01808,-38.27777 34.95319,-55.11542 l 8.9703,-9.47835 -1.61037,-2.64563 c -11.22825,-18.4466 -17.17977,-32.24079 -20.24834,-46.93075 -3.36632,-16.11536 -7.52108,-49.47267 -7.53109,-60.46488 l -0.003,-3.75 7.6347,0 c 9.56169,0 30.07371,3.46521 41.3653,6.98807 1.375,0.42899 4.525,1.33346 7,2.00994 5.48139,1.49819 5.79406,1.61905 19.5,7.53757 12.65904,5.46644 25.09953,11.83983 28,14.3447 1.1,0.94997 5.34924,3.92727 9.44277,6.61623 4.09352,2.68896 8.14352,5.49371 9,6.23277 4.95761,4.27797 8.07042,6.27072 9.79528,6.27072 2.30292,0 25.3654,-7.80803 26.6378,-9.01849 1.26584,-1.20421 8.79602,-75.37006 7.89171,-77.72663 -0.92567,-2.41226 -3.9773,-3.20884 -20.92083,-5.46105 -14.99247,-1.99287 -21.13933,-2.23934 -55.84673,-2.23934 -40.42297,0 -54.56255,1.04678 -80.07,5.92773 -4.3615,0.83459 -8.38,1.51757 -8.93,1.51774 -0.63984,1.9e-4 -0.87206,-5.76971 -0.64477,-16.02057 0.25818,-11.64389 0.0198,-16.42501 -0.87244,-17.50013 -1.68641,-2.03199 -26.16753,-2.16651 -27.83863,-0.15297 -0.69761,0.84058 -1.20023,8.59485 -1.37244,21.17366 l -0.27172,19.84737 -12,3.66756 c -40.76547,12.45913 -71.73894,28.59634 -99.71964,51.95405 -27.37674,22.85352 -46.77644,53.33034 -52.22294,82.04195 -3.09425,16.31157 -1.14155,23.08764 3.77092,13.08548 0.91941,-1.872 1.67166,-3.81346 1.67166,-4.31437 0,-0.5009 2.96852,-6.82313 6.59671,-14.0494 8.92424,-17.77441 21.89677,-34.93955 36.47756,-48.26681 3.53415,-3.23031 6.87573,-6.38878 7.42573,-7.01883 0.55,-0.63005 5.05,-3.99852 10,-7.48549 4.95,-3.48697 10.125,-7.26729 11.5,-8.40071 6.71307,-5.53359 35.42996,-19.02671 47.5,-22.31868 2.2,-0.60003 7.825,-2.25077 12.5,-3.66831 12.11797,-3.67438 24.16252,-5.81105 25.45832,-4.51624 0.69458,0.69404 1.23486,27.2653 1.62143,79.74168 l 0.57976,78.7008 3.05989,11.5 c 5.54145,20.82637 6.69635,21.55222 11.75033,7.38503 z m 185.53027,-6.94405 c 0,-0.85746 -0.45,-1.2809 -1,-0.94098 -1.29391,0.79968 -1.29391,2.5 0,2.5 0.55,0 1,-0.70156 1,-1.55902 z m -47.33141,-37.46022 c 10.86442,-3.81324 21.88152,-9.65608 26.54118,-14.07592 3.70263,-3.51208 3.79023,-3.76144 3.79023,-10.78984 0,-5.13988 -0.55246,-8.27758 -1.93438,-10.98637 -1.85654,-3.63913 -10.31292,-12.16453 -17.51445,-17.6574 l -3.42577,-2.61296 -5.8127,1.6888 c -3.19698,0.92883 -7.3877,2.28465 -9.3127,3.01292 -1.925,0.72828 -4.625,1.63125 -6,2.00662 -3.48735,0.95202 -34.63428,16.50088 -39.5,19.7188 -7.13248,4.71702 -12.5,9.17783 -12.5,10.38842 0,3.0906 22.63402,17.27361 33,20.67857 7.46789,2.45301 8.20359,2.54261 16.5,2.00949 5.10201,-0.32786 10.95906,-1.55267 16.16859,-3.38113 z m -65.47659,-44.23454 c 12.72633,-9.28904 25.89203,-17.32614 39.558,-24.14849 5.0875,-2.53979 9.24999,-4.95079 9.24997,-5.35777 -4e-5,-0.92635 -5.66648,-5.47519 -8.99997,-7.22489 -1.375,-0.72171 -3.78175,-2.37853 -5.34834,-3.68182 -5.03405,-4.18799 -36.42157,-18.5765 -46.65166,-21.38584 -2.475,-0.67967 -6.42823,-1.84588 -8.78495,-2.59159 -2.35672,-0.7457 -5.02477,-1.35582 -5.929,-1.35582 -0.90423,0 -3.13821,-0.54029 -4.9644,-1.20065 -2.08918,-0.75546 -3.64738,-0.84816 -4.20233,-0.25 -0.90795,0.97865 1.41459,17.80719 4.32885,31.36578 2.42088,11.26314 6.92092,23.75241 11.56057,32.08487 2.29687,4.125 4.57339,8.5125 5.05894,9.75 0.48555,1.2375 1.54286,2.25 2.34957,2.25 0.80672,0 6.55535,-3.7142 12.77475,-8.25378 z"
         style="fill:#c90a0e" />
      <path
         sodipodi:nodetypes="ssssssssssssssssscccccccsssssssscssssssssssssssssssssssscsssssssssssssscsssssscccsssssssssssssssscsssssssssssssssssssssssscssssssssssssccsscsscssssscsssssssssssssssssssssssssssssscscssccssssssssssssscscsscsssssssssssssscsccssssscsssssssssssssssssssssssssssscccssss"
         inkscape:connector-curvature="0"
         id="path1896"
         d="m 382.92084,690.04648 c -33.48679,-3.40252 -72.25798,-17.80481 -99.5,-36.96115 -6.77335,-4.76295 -23.35193,-18.19177 -26.78116,-21.693 -9.06368,-9.254 -17.54132,-19.86572 -29.99415,-37.54462 -3.03468,-4.30823 -10.53517,-18.80863 -11.79094,-22.79494 -0.70775,-2.24667 -3.23587,-9.0785 -7.58604,-20.5 -0.83793,-2.2 -1.89797,-5.8 -2.35565,-8 -0.45768,-2.2 -1.62586,-7.825 -2.59595,-12.5 -1.40863,-6.7884 -1.77712,-13.73549 -1.82996,-34.5 -0.064,-25.14598 0.76359,-34.48254 3.52214,-39.73643 0.50144,-0.95504 0.91171,-8.89283 0.91171,-17.63953 0,-23.88665 3.26895,-37.6583 13.50725,-56.90432 6.67644,-12.5504 14.47947,-22.92015 27.42462,-36.44562 26.44383,-27.62929 55.10609,-46.96716 89.95847,-60.69324 7.17387,-2.82532 17.4458,-6.54247 22.82652,-8.26035 5.38073,-1.71787 10.34564,-3.56036 11.03314,-4.0944 0.91336,-0.7095 1.25,-5.57347 1.25,-18.0607 l 0,-17.08971 4.20821,-4.28785 4.20821,-4.28785 21.50394,0 21.50394,0 4.28785,4.20821 4.28785,4.20821 0,9.66934 c 0,7.49782 0.34678,9.95715 1.54412,10.95086 1.25682,1.04306 4.28028,1.01933 16.25,-0.12756 22.41729,-2.14794 100.46043,-1.89156 117.36904,0.38556 15.79945,2.12775 20.21685,2.15734 21.88562,0.14661 0.91335,-1.10052 1.69589,-9.98337 2.66183,-30.21533 0.95644,-20.03269 1.73249,-28.88808 2.57878,-29.42591 0.66584,-0.42315 15.26737,-0.77626 32.44786,-0.78468 l 31.23724,-0.0153 -0.59535,7.75 c -0.32745,4.2625 -5.05811,36.1 -10.51259,70.75 -5.45449,34.65 -9.79334,64.125 -9.6419,65.5 0.36392,3.30416 3.335,3.6114 15.69203,1.62271 14.72803,-2.37026 45.66668,-3.91849 64.08332,-3.20684 21.40615,0.82716 58.19821,4.84906 60.5,6.61351 0.55,0.42161 3.41769,1.47961 6.37265,2.35111 12.39789,3.65651 29.23243,15.37439 39.4039,27.42755 3.6979,4.382 6.72345,8.22027 6.72345,8.52949 0,0.30921 1.31579,2.51183 2.92397,4.8947 4.63837,6.87277 10.5289,21.34857 13.40561,32.9439 5.36124,21.60993 5.44715,48.24624 0.22209,68.86395 -7.15806,28.24517 -9.9357,36.00612 -20.12293,56.22494 -12.88012,25.56348 -38.37244,56.66267 -58.92874,71.88973 -4.4,3.2593 -9.8,7.28132 -12,8.93782 -9.63152,7.25209 -29.99834,17.85144 -43,22.37816 -2.75,0.95745 -5.9,2.10069 -7,2.54052 -24.619,9.84384 -61.79801,9.02239 -85.74678,-1.89451 -2.61073,-1.19009 -5.76073,-2.60989 -7,-3.15511 -1.23927,-0.54523 -3.60322,-1.87796 -5.25322,-2.96163 -1.65,-1.08367 -3.92605,-2.38298 -5.05789,-2.88736 -1.13183,-0.50438 -6.75683,-5.55723 -12.5,-11.22856 -5.74316,-5.67133 -11.31231,-10.77784 -12.37589,-11.34779 -3.60601,-1.93242 -8.89393,-10.43926 -8.75678,-14.08733 0.0725,-1.92931 -0.56985,-4.06651 -1.50264,-4.9993 -1.73118,-1.73118 -2.64752,-1.66949 -12.8068,0.86224 -12.51952,3.1199 -23.77408,3.94646 -46.11437,3.38671 -14.72829,-0.36903 -23.68432,-1.03738 -27.38563,-2.04368 -3.025,-0.82243 -8.10122,-2.20409 -11.2805,-3.07036 -3.17927,-0.86627 -7.54885,-2.47719 -9.71016,-3.57981 -2.16132,-1.10262 -4.44888,-2.00476 -5.08348,-2.00476 -0.6346,0 -4.4028,-2.025 -8.37377,-4.5 -3.97098,-2.475 -7.57278,-4.5 -8.00401,-4.5 -0.43123,0 -2.27536,-1.2375 -4.09808,-2.75 -1.82271,-1.5125 -5.39417,-4.325 -7.93657,-6.25 -6.62294,-5.01462 -21.99162,-21.14715 -29.05586,-30.5 -6.81656,-9.02494 -15.65339,-24.02351 -18.03454,-30.60967 -0.873,-2.41468 -3.21763,-10.46533 -5.21029,-17.89033 l -3.62302,-13.5 -0.33909,-70.95083 c -0.23205,-48.55324 -0.67766,-71.35879 -1.41162,-72.24315 -2.71289,-3.26883 -21.2475,2.71443 -43.33901,13.99049 -25.62135,13.07778 -44.48991,29.09692 -62.66712,53.20349 -4.05738,5.38089 -14.97923,26.33343 -19.35527,37.13128 -0.92086,2.2722 -3.99253,6.41541 -6.82595,9.20712 l -5.15166,5.07586 -7.4861,0.29287 -7.48609,0.29287 -0.75822,4 c -0.41702,2.2 -1.26497,6.925 -1.88433,10.5 -1.53998,8.88887 -0.50865,42.04906 1.63283,52.5 0.9016,4.4 2.00709,9.8 2.45665,12 0.44957,2.2 2.03189,7.15 3.51627,11 1.48438,3.85 3.10768,8.39145 3.60734,10.0921 1.73395,5.90179 12.53626,25.94764 17.95435,33.31792 2.99601,4.07551 8.1473,10.51472 11.4473,14.30936 3.3,3.79464 7.125,8.37668 8.5,10.18232 2.85041,3.74314 8.09533,8.48547 19.32426,17.47256 30.63612,24.51966 68.52928,39.60269 108.67574,43.25739 26.04902,2.37135 65.17277,-1.67629 83,-8.58695 1.925,-0.74622 6.04174,-2.10154 9.1483,-3.01182 7.15875,-2.09763 37.11968,-17.15954 43.51566,-21.8761 10.77448,-7.94538 12.5717,-9.33608 17.59862,-13.6179 2.88058,-2.45361 8.9307,-8.23502 13.44471,-12.84757 4.514,-4.61255 8.65024,-8.23005 9.19163,-8.03888 0.54139,0.19116 2.32701,2.35243 3.96805,4.80282 3.59708,5.37112 3.40382,5.9039 -5.25458,14.48613 -16.71488,16.56783 -30.54459,26.58793 -51.25366,37.13505 -14.88701,7.58195 -18.54524,9.16692 -27.85873,12.07013 -2.75,0.85724 -6.575,2.16528 -8.5,2.90676 -4.89716,1.8863 -18.96921,5.20598 -29.56342,6.97417 -10.67568,1.78178 -52.06254,2.72352 -64.43658,1.46621 z m 293,-48.45669 c 19.93398,-3.34906 51.59788,-16.698 68,-28.66758 1.375,-1.00342 6.1,-4.39048 10.5,-7.52681 10.80226,-7.69986 19.30734,-15.93785 28.40216,-27.51022 13.30916,-16.93476 19.91619,-27.16496 27.66268,-42.83241 7.3153,-14.79535 10.54818,-22.82475 13.28681,-33 7.9546,-29.55497 7.60062,-27.48609 7.61386,-44.5 0.0112,-14.36068 -0.2781,-17.11936 -2.82335,-26.92516 -4.45924,-17.17961 -12.04249,-33.03929 -21.00138,-43.92247 -8.43531,-10.24715 -25.4229,-20.08988 -42.64078,-24.70637 -1.925,-0.51614 -11.15,-1.91639 -20.5,-3.11167 -31.73229,-4.05659 -77.04004,-2.63002 -104.6707,3.2957 -4.94357,1.0602 -6.19326,2.48405 -3.0793,3.50842 0.9625,0.31662 3.1,1.16359 4.75,1.88215 1.65,0.71857 5.25,1.60295 8,1.96531 2.75,0.36235 6.125,1.02407 7.5,1.47048 1.375,0.44641 4.525,1.3949 7,2.10776 2.475,0.71286 4.95,1.60997 5.5,1.99359 0.55,0.38361 2.125,1.03254 3.5,1.44206 1.375,0.40952 6.71359,2.7146 11.86353,5.12239 5.14994,2.4078 9.54253,4.37781 9.76131,4.37781 1.08398,0 12.75665,8.58592 19.53152,14.36655 17.52709,14.95494 36.15986,39.29424 38.76206,50.63345 1.20648,5.25732 1.27194,25.01311 0.12093,36.5 -1.16523,11.62888 -6.15446,24.93532 -12.10852,32.29385 -6.98684,8.63492 -18.29531,17.33646 -27.56337,21.20921 -16.82469,7.03037 -24.15542,8.24316 -46.86746,7.75374 -16.75609,-0.36108 -18.51267,-0.58082 -25.41857,-3.17969 -4.08021,-1.53549 -10.15521,-4.64333 -13.5,-6.90631 -9.19962,-6.22418 -25.6647,-23.33934 -30.12406,-31.31342 -5.85346,-10.46697 -10.41803,-19.72251 -10.43866,-21.1664 -0.0103,-0.71996 -0.41246,-1.06566 -0.89371,-0.76823 -0.48125,0.29742 -0.87578,1.56148 -0.87673,2.80901 -9.5e-4,1.24753 -1.49305,20.92322 -3.31578,43.72376 l -3.31404,41.45552 4.44078,13.04448 c 3.16792,9.30557 5.87391,15.17716 9.44077,20.48509 4.53972,6.75564 14.97776,18.03993 16.69987,18.05377 0.38493,0.003 2.63493,1.28696 5,2.85305 8.38541,5.55258 29.43184,13.11282 40.30013,14.47649 6.56988,0.82434 13.39699,0.57446 21.5,-0.7869 z m -135.5,-56.37041 c 11.24389,-2.42425 16.31768,-4.58907 17.44738,-7.44425 0.84034,-2.12383 9.12159,-104.24824 9.07504,-111.91334 -0.0289,-4.74991 -1.07706,-5.29935 -5.32661,-2.79205 -1.90175,1.12206 -8.7988,3.90765 -15.32677,6.19019 -11.51481,4.02622 -12.22718,4.14652 -23.86904,4.03098 -14.72314,-0.14612 -23.86801,-2.33703 -36.5241,-8.75035 -6.6333,-3.36135 -18.96618,-11.97747 -24.93588,-17.42095 -2.45298,-2.23676 -4.7551,-4.06684 -5.11581,-4.06684 -1.38853,0 -15.94136,13.85121 -22.03254,20.97029 -9.00126,10.52027 -19.16743,24.34341 -22.35159,30.39192 -8.92795,16.95922 -10.68378,20.92911 -10.16712,22.98765 0.6943,2.7663 10.46687,17.41884 16.44052,24.65014 6.25905,7.57679 16.48665,17.38502 22.04826,21.14421 10.21087,6.9017 19.89389,12.51279 24.63826,14.27728 2.75,1.02277 5.47578,2.22946 6.0573,2.68156 1.62219,1.26115 17.65739,5.54881 25.9427,6.93682 8.28691,1.38829 33.93776,0.29622 44,-1.87326 z M 686.9097,527.383 c 8.15078,-2.39795 19.95397,-7.10668 24.51663,-9.78058 14.92536,-8.74684 25.82799,-30.36682 24.18517,-47.95933 -0.66533,-7.1249 -2.05954,-10.58897 -8.98498,-22.32416 -11.0474,-18.71986 -29.71177,-35.59467 -50.1274,-45.32114 -5.70871,-2.71976 -10.73213,-4.94502 -11.16315,-4.94502 -0.43103,0 -2.61326,-0.84111 -4.84941,-1.86914 -6.46568,-2.97247 -9.32327,-3.89824 -22.06572,-7.14867 -14.92957,-3.80834 -34.11396,-5.22537 -36.63344,-2.70589 -2.32302,2.32302 -3.91621,16.81258 -3.98294,36.2237 -0.0493,14.34179 0.34682,19.09638 2.53337,30.40696 4.1637,21.53804 5.85,26.19951 16.14553,44.63135 3.98723,7.13824 14.09202,17.69759 22.17078,23.16813 5.20789,3.52653 16.78403,8.32343 23.2667,9.64122 4.32006,0.87817 19.24117,-0.32645 24.98886,-2.01743 z M 401.39057,493.4378 c 6.75946,-18.94794 19.01808,-38.27777 34.95319,-55.11542 l 8.9703,-9.47835 -1.61037,-2.64563 c -11.22825,-18.4466 -17.17977,-32.24079 -20.24834,-46.93075 -3.36632,-16.11536 -7.52108,-49.47267 -7.53109,-60.46488 l -0.003,-3.75 7.6347,0 c 9.56169,0 30.07371,3.46521 41.3653,6.98807 1.375,0.42899 4.525,1.33346 7,2.00994 5.48139,1.49819 5.79406,1.61905 19.5,7.53757 12.65904,5.46644 25.09953,11.83983 28,14.3447 1.1,0.94997 5.34924,3.92727 9.44277,6.61623 4.09352,2.68896 8.14352,5.49371 9,6.23277 4.95761,4.27797 8.07042,6.27072 9.79528,6.27072 2.30292,0 25.3654,-7.80803 26.6378,-9.01849 1.26584,-1.20421 8.79602,-75.37006 7.89171,-77.72663 -0.92567,-2.41226 -3.9773,-3.20884 -20.92083,-5.46105 -14.99247,-1.99287 -21.13933,-2.23934 -55.84673,-2.23934 -40.42297,0 -54.56255,1.04678 -80.07,5.92773 -4.3615,0.83459 -8.38,1.51757 -8.93,1.51774 -0.63984,1.9e-4 -0.87206,-5.76971 -0.64477,-16.02057 0.25818,-11.64389 0.0198,-16.42501 -0.87244,-17.50013 -1.68641,-2.03199 -26.16753,-2.16651 -27.83863,-0.15297 -0.69761,0.84058 -1.20023,8.59485 -1.37244,21.17366 l -0.27172,19.84737 -12,3.66756 c -40.76547,12.45913 -71.73894,28.59634 -99.71964,51.95405 -27.37674,22.85352 -46.77644,53.33034 -52.22294,82.04195 -3.09425,16.31157 -1.14155,23.08764 3.77092,13.08548 0.91941,-1.872 1.67166,-3.81346 1.67166,-4.31437 0,-0.5009 2.96852,-6.82313 6.59671,-14.0494 8.92424,-17.77441 21.89677,-34.93955 36.47756,-48.26681 3.53415,-3.23031 6.87573,-6.38878 7.42573,-7.01883 0.55,-0.63005 5.05,-3.99852 10,-7.48549 4.95,-3.48697 10.125,-7.26729 11.5,-8.40071 6.71307,-5.53359 35.42996,-19.02671 47.5,-22.31868 2.2,-0.60003 7.825,-2.25077 12.5,-3.66831 12.11797,-3.67438 24.16252,-5.81105 25.45832,-4.51624 0.69458,0.69404 1.23486,27.2653 1.62143,79.74168 l 0.57976,78.7008 3.05989,11.5 c 5.54145,20.82637 6.69635,21.55222 11.75033,7.38503 z m 138.19886,-44.40427 c 10.86442,-3.81324 21.88152,-9.65608 26.54118,-14.07592 3.70263,-3.51208 3.79023,-3.76144 3.79023,-10.78984 0,-5.13988 -0.55246,-8.27758 -1.93438,-10.98637 -1.85654,-3.63913 -10.31292,-12.16453 -17.51445,-17.6574 l -3.42577,-2.61296 -5.8127,1.6888 c -3.19698,0.92883 -7.3877,2.28465 -9.3127,3.01292 -1.925,0.72828 -4.625,1.63125 -6,2.00662 -3.48735,0.95202 -34.63428,16.50088 -39.5,19.7188 -7.13248,4.71702 -12.5,9.17783 -12.5,10.38842 0,3.0906 22.63402,17.27361 33,20.67857 7.46789,2.45301 8.20359,2.54261 16.5,2.00949 5.10201,-0.32786 10.95906,-1.55267 16.16859,-3.38113 z m -65.47659,-44.23454 c 12.72633,-9.28904 25.89203,-17.32614 39.558,-24.14849 5.0875,-2.53979 9.24999,-4.95079 9.24997,-5.35777 -4e-5,-0.92635 -5.66648,-5.47519 -8.99997,-7.22489 -1.375,-0.72171 -3.78175,-2.37853 -5.34834,-3.68182 -5.03405,-4.18799 -36.42157,-18.5765 -46.65166,-21.38584 -2.475,-0.67967 -6.42823,-1.84588 -8.78495,-2.59159 -2.35672,-0.7457 -5.02477,-1.35582 -5.929,-1.35582 -0.90423,0 -3.13821,-0.54029 -4.9644,-1.20065 -2.08918,-0.75546 -3.64738,-0.84816 -4.20233,-0.25 -0.90795,0.97865 1.41459,17.80719 4.32885,31.36578 2.42088,11.26314 6.92092,23.75241 11.56057,32.08487 2.29687,4.125 4.57339,8.5125 5.05894,9.75 0.48555,1.2375 1.54286,2.25 2.34957,2.25 0.80672,0 6.55535,-3.7142 12.77475,-8.25378 z m 138.695,-70.53508 c 0.52655,-0.98387 1.90854,-6.94637 3.07108,-13.25 1.16254,-6.30363 2.95719,-15.51114 3.98811,-20.46114 1.03093,-4.95 2.82468,-13.725 3.98611,-19.5 6.94882,-34.55153 7.15524,-35.90232 8.52442,-55.78245 l 0.70817,-10.28245 -11.83245,0.28245 -11.83244,0.28245 -0.22616,20 c -0.12439,11 -0.92876,37.67817 -1.78749,59.28483 -0.85873,21.60665 -1.29291,39.71915 -0.96483,40.25 1.00814,1.6312 5.35252,1.06904 6.36548,-0.82369 z"
         style="fill:#171717" />
      <path
         sodipodi:nodetypes="ssssssssssssssssssssssssscscssssssscsssssssssssssscccsssssssscsssssssscccccccsssscssscsscscssssssssssssssccsssssssssssssssssssssssssssssssssssssssssssssssssssssssscsssscssssssssssssssssssssssssssssssssssssssssssssssssssssssssssssscsssssssssssssssssssssssssssssssssssssss"
         inkscape:connector-curvature="0"
         id="path1894"
         d="m 382.92084,689.04648 c -33.29713,-3.38325 -70.88842,-17.24814 -97.5,-35.96115 -7.48002,-5.25988 -23.47534,-18.2864 -27.8404,-22.67311 -9.30858,-9.35474 -17.92681,-20.0982 -30.92974,-38.55692 -3.05101,-4.33116 -9.55971,-16.87161 -10.79686,-20.80253 -0.70697,-2.24634 -3.22968,-9.06419 -7.58529,-20.5 -0.83793,-2.2 -1.89797,-5.8 -2.35565,-8 -0.45768,-2.2 -1.62586,-7.825 -2.59595,-12.5 -2.37431,-11.44212 -2.67552,-57.15495 -0.43983,-66.75 0.80095,-3.4375 1.7437,-6.25 2.09501,-6.25 0.3513,0 1.49598,0.95164 2.54372,2.11476 1.04775,1.16312 2.91146,2.49969 4.14159,2.97016 2.00153,0.76549 2.11667,1.14754 1.09552,3.63523 -0.6579,1.60276 -1.33721,11.16225 -1.60427,22.57598 -0.67669,28.92119 1.33652,42.87338 9.48064,65.70387 4.79625,13.44535 10.24103,25.31294 14.27653,31.11748 17.28893,24.86794 26.77791,35.62561 43.01498,48.7662 18.2863,14.79901 24.95337,18.83749 51.5,31.19534 7.39,3.44016 26.54635,8.84871 44.5,12.56402 10.87697,2.25086 54.73889,2.55032 68,0.46425 20.55399,-3.23329 46.78127,-11.26019 58.59277,-17.9324 3.79898,-2.146 7.98,-4.23772 9.29116,-4.64826 3.02657,-0.94764 12.00388,-6.38956 19.11607,-11.5879 3.025,-2.21099 6.625,-4.78184 8,-5.71299 3.57233,-2.41919 11.27193,-9.4831 20.35991,-18.67895 l 7.85991,-7.9532 2.86319,3.4532 c 1.57475,1.89927 2.87529,4.04853 2.89009,4.77614 0.0438,2.15528 -21.22669,22.59569 -29.10838,27.97241 -1.8506,1.26243 -6.08646,4.27667 -9.41303,6.6983 -3.32657,2.42163 -12.32657,7.59884 -20,11.5049 -14.12617,7.19076 -17.93886,8.83853 -26.95169,11.64802 -2.75,0.85724 -6.575,2.16528 -8.5,2.90676 -4.89716,1.8863 -18.96921,5.20598 -29.56342,6.97417 -10.67568,1.78178 -52.06254,2.72352 -64.43658,1.46622 z m 265,-30.6751 c -3.88957,-0.40154 -14.34786,-2.88838 -20.5,-4.87462 -15.34214,-4.95327 -30.76296,-14.94469 -41.47325,-26.87124 -5.97857,-6.65751 -6.98328,-7.57275 -8.31297,-7.57275 -2.023,0 -8.71378,-10.90718 -8.71378,-14.20505 0,-7.23288 -2.59557,-8.0434 -15.61262,-4.87533 -14.30776,3.48219 -25.06919,4.37051 -46.04674,3.80097 -17.18643,-0.4666 -21.17841,-0.8928 -29.84064,-3.18589 -5.5,-1.45598 -12.475,-3.71769 -15.5,-5.02604 -3.025,-1.30835 -6.46722,-2.64898 -7.64937,-2.97919 -2.62326,-0.73274 -17.17451,-9.40794 -21.2451,-12.66595 -1.62414,-1.29994 -4.82587,-3.71352 -7.11495,-5.36352 -5.89742,-4.25095 -21.40147,-20.5563 -28.5257,-30 -7.44002,-9.86232 -15.00181,-22.88309 -17.63495,-30.36595 -1.09042,-3.09873 -3.61432,-11.70905 -5.60868,-19.13405 l -3.62611,-13.5 -0.54757,-71.5 -0.54757,-71.5 -5.33548,0.14397 c -6.87579,0.18554 -12.54006,1.75616 -23.66452,6.56182 -16.01441,6.91808 -29.22226,13.89897 -35.66981,18.85297 -1.8316,1.40732 -6.79433,5.11295 -11.02827,8.23472 -7.48169,5.5164 -18.96004,16.36451 -23.58084,22.28608 -1.2534,1.60624 -4.95905,6.37237 -8.23477,10.5914 -5.3073,6.83564 -16.63121,27.86325 -21.19005,39.34825 -0.87746,2.21056 -3.8713,6.14806 -6.65298,8.75 l -5.0576,4.73079 -8.85575,0 c -8.39733,0 -8.99485,-0.14519 -11.54284,-2.80472 -2.68044,-2.79778 -2.68706,-2.84291 -2.67395,-18.25 0.0309,-36.28346 10.96651,-60.36432 41.89365,-92.25195 14.58893,-15.04201 27.15209,-25.60154 43.09321,-36.22054 19.96061,-13.29653 40.52575,-22.8829 68.63319,-31.99313 5.91363,-1.91674 11.10849,-4.04628 11.54412,-4.73232 0.43564,-0.68604 0.79896,-8.69115 0.80738,-17.78913 l 0.0153,-16.54179 4.28785,-4.20821 4.28785,-4.20821 20.50394,0 20.50394,0 4.20821,4.28785 4.20821,4.28785 0,9.14072 c 0,7.27096 0.34786,9.48859 1.7006,10.84132 1.83989,1.8399 0.64267,1.86523 29.19743,-0.61774 19.95764,-1.73541 91.34073,-0.57432 109.10197,1.77462 l 13.5,1.78538 -0.0729,3.68411 c -0.0401,2.02626 -0.65293,4.38303 -1.36188,5.23727 -1.40835,1.69695 -0.67579,5.07399 0.89066,4.10587 1.19246,-0.73698 3.03094,-7.12339 3.03851,-10.55501 0.003,-1.39027 0.87319,-3.27063 1.9336,-4.17858 2.43219,-2.0825 2.72938,-4.63089 4.04308,-34.6692 0.58632,-13.40655 1.30924,-24.76905 1.60649,-25.25 0.29724,-0.48095 14.45699,-0.87446 31.46609,-0.87446 l 30.92566,0 -0.51977,6.25 c -0.28587,3.4375 -5.09549,35.64212 -10.68804,71.56582 -7.55691,48.54179 -9.89752,65.74834 -9.11404,67 1.493,2.38512 5.29188,2.57353 16.26919,0.80689 24.30857,-3.91211 64.34139,-4.36887 94.08332,-1.07345 33.61325,3.72436 42.79013,6.76721 60.5,20.06049 9.38921,7.04766 15.04688,13.12325 22.24695,23.89025 14.79625,22.12635 21.38848,49.8545 19.30866,81.21584 -1.13101,17.05449 -8.9056,48.04284 -15.8772,63.28416 -9.92731,21.70311 -15.98881,31.72293 -31.33333,51.79482 -8.34364,10.91417 -30.09311,32.31434 -39.34508,38.71319 -3.85,2.66274 -8.00272,5.732 -9.22827,6.82057 -6.36445,5.65311 -31.49805,18.00362 -48.21601,23.69307 -6.69787,2.27942 -16.31294,4.77397 -21.36683,5.54344 -8.37057,1.27444 -25.94487,1.6562 -34.68889,0.75352 z m 27,-14.75783 c 5.225,-0.75669 14.9,-3.178 21.5,-5.38069 37.81303,-12.61976 69.93293,-35.27467 92.41163,-65.18009 21.97978,-29.24164 32.16367,-50.97536 41.70326,-89 2.56888,-10.23951 2.88291,-13.19892 2.86507,-27 -0.0178,-13.74796 -0.34147,-16.74339 -2.86366,-26.5 -5.46853,-21.15396 -15.15444,-39.19095 -26.9236,-50.13676 -11.02925,-10.25768 -29.6158,-19.2318 -44.11732,-21.30111 -40.87859,-5.83323 -71.19457,-5.88067 -110.457,-0.17284 -13.57665,1.97373 -16.99351,3.38778 -15.78651,6.53317 0.33295,0.86765 1.41936,1.57754 2.41424,1.57754 0.99488,0 2.77776,0.67863 3.96196,1.50808 1.18419,0.82944 4.89828,1.795 8.25353,2.1457 3.35526,0.35069 6.33805,1.02205 6.62845,1.49192 0.29039,0.46986 1.82487,0.8543 3.40995,0.8543 1.58508,0 3.16008,0.45 3.5,1 0.33992,0.55 1.62648,1 2.85902,1 1.23254,0 2.66848,0.37788 3.19098,0.83972 0.5225,0.46185 2.525,1.4331 4.45,2.15833 1.925,0.72523 7.23911,3.04736 11.80913,5.16028 4.57002,2.11292 8.63702,3.84167 9.03777,3.84167 0.40076,0 2.28665,1.33171 4.19087,2.95936 1.90423,1.62765 3.9295,2.97765 4.50061,3 3.92491,0.15361 36.97188,33.77453 41.02618,41.7387 1.06449,2.09107 2.91037,5.15194 4.10194,6.80194 5.1516,7.13353 5.8391,10.74588 5.75215,30.22397 -0.0771,17.27782 -1.05245,24.80505 -3.59253,27.72603 -0.45437,0.5225 -0.82612,1.95844 -0.82612,3.19098 0,1.23254 -0.45,2.5191 -1,2.85902 -0.55,0.33992 -1,1.62892 -1,2.86445 0,4.7398 -18.69389,23.90702 -27.83266,28.53738 -5.08958,2.57875 -15.43267,6.4684 -23.16734,8.71239 -5.32717,1.54552 -9.83807,1.88578 -25,1.88578 -18.00726,0 -18.71308,-0.0785 -26.5,-2.94801 -4.4,-1.62141 -10.7,-4.75674 -14,-6.9674 -8.91542,-5.97242 -26.56035,-24.19839 -30.73192,-31.74391 -1.92801,-3.48738 -4.61767,-8.36568 -5.97703,-10.84068 -1.35935,-2.475 -3.02834,-6.1875 -3.70885,-8.25 -0.78758,-2.38699 -1.85821,-3.75 -2.94557,-3.75 -1.53242,0 -2.07548,4.60635 -5.2757,44.75 -3.9137,49.09359 -3.9557,47.4319 1.55763,61.63664 1.30504,3.36235 2.63024,7.25894 2.9449,8.6591 0.89767,3.9944 8.55136,14.89586 14.85781,21.16258 10.90776,10.83906 26.91957,19.0341 45.27873,23.1742 12.35261,2.78559 17.0937,2.97495 29.5,1.17826 z M 535.51113,587.03733 c 6.48397,-1.10849 14.38409,-2.96163 17.55581,-4.1181 5.56168,-2.02789 5.78624,-2.24963 6.31389,-6.23457 0.30091,-2.27254 2.34081,-27.30689 4.53311,-55.63189 2.19229,-28.325 4.18112,-52.92378 4.41961,-54.66395 0.24307,-1.7736 -0.1666,-3.97077 -0.93227,-5 -1.31009,-1.76103 -1.58274,-1.72534 -6.67317,0.87365 -23.5863,12.04232 -45.85242,13.46166 -67.80727,4.32233 -11.19967,-4.66218 -16.91326,-8.37503 -29.65368,-19.2698 -3.38453,-2.89423 -6.89139,-5.26223 -7.79302,-5.26223 -0.90164,0 -4.37307,2.7 -7.7143,6 -3.34123,3.3 -6.35937,6.00639 -6.70698,6.0142 -0.34761,0.008 -2.43202,2.30881 -4.63202,5.11335 -2.2,2.80453 -5.12645,6.28564 -6.50322,7.7358 -5.22603,5.50461 -15.26914,19.26553 -18.34544,25.13665 -1.29683,2.475 -4.44138,8.325 -6.9879,13 -2.54651,4.675 -4.60585,9.625 -4.57631,11 0.0295,1.375 1.70952,5.02599 3.73329,8.11331 2.02377,3.08732 4.98071,7.58732 6.57097,10 1.59027,2.41268 4.51527,6.22434 6.5,8.47036 1.98474,2.24602 5.47007,6.17867 7.74519,8.73923 6.22084,7.0013 23.49692,19.55269 33.86342,24.60239 5.6457,2.75011 16.58052,7.09527 20.05768,7.97029 2.16828,0.54564 5.96732,1.51286 8.44232,2.14937 13.44464,3.45763 31.78674,3.81232 48.59029,0.93961 z m 144.90971,-56.98589 c 17.12268,-2.92908 32.64134,-10.07931 41.42992,-19.08884 12.82231,-13.14467 18.53726,-35.09505 13.13733,-50.45883 -4.92755,-14.01974 -20.3437,-34.043 -35.06725,-45.54707 -11.79768,-9.21797 -12.13787,-9.44056 -19,-12.43188 -3.575,-1.5584 -6.95,-3.15113 -7.5,-3.5394 -0.97422,-0.68776 -11.67116,-5.07957 -20.28115,-8.32677 -4.21847,-1.59097 -17.42628,-4.92564 -26.21885,-6.61967 -2.475,-0.47684 -9.32167,-0.89381 -15.21482,-0.9266 -9.22049,-0.0513 -10.84483,0.18445 -11.64708,1.69039 -2.25354,4.2302 -3.60538,18.56438 -3.51299,37.25 0.087,17.59943 0.39046,20.91325 3.11341,34 3.49586,16.80145 7.27327,27.17573 14.12096,38.78175 15.8421,26.85051 40.22466,39.73574 66.64052,35.21692 z m -283.72917,-3.18617 c -0.61807,-1.85422 -2.77083,-2.16176 -2.77083,-0.39583 0,0.87083 0.7125,1.58333 1.58333,1.58333 0.87084,0 1.40521,-0.53437 1.1875,-1.1875 z m 5.32194,-32.39462 c 4.39863,-12.14247 7.51962,-18.40075 14.67064,-29.41788 6.63713,-10.22539 14.90057,-20.38931 23.14556,-28.4687 3.35006,-3.28278 6.09103,-6.78113 6.09103,-7.7741 0,-0.99298 -1.61999,-4.15707 -3.59998,-7.03131 -13.15167,-19.09152 -20.87549,-47.06212 -24.36278,-88.22589 -1.63488,-19.29814 -2.27281,-17.50314 6.21276,-17.48157 13.72707,0.0349 41.53926,6.17065 58.66943,12.9433 14.8396,5.86705 26.43097,11.63985 35.58057,17.72004 12.02127,7.9885 12.44382,8.28369 20.2169,14.12314 6.1115,4.5912 7.71978,5.34996 10.5,4.95371 3.37674,-0.48126 25.45797,-8.10016 26.50208,-9.14426 0.89768,-0.89769 8.3043,-76.87618 7.68804,-78.86542 -0.88915,-2.87013 -3.1385,-3.4768 -21.93764,-5.91671 -16.16775,-2.0984 -21.82943,-2.32905 -56.46938,-2.3005 -39.83722,0.0328 -54.29503,1.11402 -79.57,5.95049 -4.3615,0.83459 -8.155,1.51793 -8.43,1.51853 -0.275,6e-4 -0.34638,-7.2878 -0.15862,-16.19643 0.30812,-14.61979 0.16775,-16.32448 -1.44113,-17.50092 -2.19542,-1.60533 -25.55629,-1.82544 -28.46599,-0.26822 -1.81561,0.97169 -1.93426,2.2905 -1.93426,21.5 0,16.39901 -0.2652,20.46482 -1.33485,20.46482 -2.64966,0 -24.48727,7.29237 -39.38464,13.15196 -19.51469,7.67573 -31.71139,13.94964 -47.28051,24.32083 -30.72528,20.46729 -53.16046,44.12195 -65.46862,69.02721 -6.19794,12.54137 -8.85875,20.25454 -11.08418,32.13088 -2.08116,11.10646 -1.67385,17.76518 1.11106,18.16354 1.63763,0.23426 2.52212,-0.78754 4.3281,-5 9.11617,-21.26346 20.86389,-41.22845 30.11364,-51.17748 10.85087,-11.67119 23.87456,-23.81827 31,-28.91344 4.675,-3.34294 9.89602,-7.23129 11.60227,-8.64079 6.72739,-5.55734 34.64105,-19.00824 46.39773,-22.35792 3.025,-0.86187 9.325,-2.69374 14,-4.07081 9.62004,-2.83368 24.22478,-5.74213 24.99125,-4.97686 0.27981,0.27937 0.74355,35.6833 1.03053,78.67541 l 0.52179,78.16747 3.3129,12.97397 c 3.36296,13.17004 4.56887,16.44315 6.54323,17.75977 2.15251,1.43542 3.14405,-0.0188 6.69307,-9.81586 z m 135.40723,-43.16307 c 13.12821,-4.23283 26.41899,-11.22277 31.22311,-16.42099 1.67551,-1.81296 2.38724,-4.17139 2.88941,-9.57457 0.94843,-10.20471 -1.72038,-15.35702 -12.83361,-24.77607 -12.08396,-10.2418 -11.12727,-9.68199 -14.40727,-8.43048 -1.5794,0.60263 -5.12164,1.70921 -7.87164,2.45907 -7.00536,1.91021 -17.84815,6.01953 -20.64678,7.82494 -1.29427,0.83494 -4.37822,2.30938 -6.85322,3.27653 -2.475,0.96715 -8.4409,4.03733 -13.25756,6.82261 -4.81666,2.78528 -10.0221,5.73915 -11.56765,6.56415 -4.72086,2.51996 -12.24752,9.38458 -11.95282,10.90146 0.90008,4.63292 28.19101,20.77872 39.98904,23.65823 6.88412,1.6802 15.31142,0.91212 25.28899,-2.30488 z m -64.56563,-43.65751 c 12.38084,-9.21413 24.51012,-16.74651 40.60324,-25.21493 6.85431,-3.60683 12.46239,-6.8798 12.46239,-7.27326 0,-0.89537 -11.56772,-9.10911 -12.8287,-9.10911 -0.50952,0 -1.50022,-0.6914 -2.20155,-1.53645 -3.59421,-4.33075 -35.58964,-19.16271 -50.45671,-23.38996 -13.34279,-3.79384 -18.88087,-5.07359 -21.95586,-5.07359 -3.08505,0 -3.18307,1.28068 -1.10974,14.5 3.68582,23.50034 8.40117,39.43441 15.09237,51 1.90919,3.3 4.19263,7.6875 5.0743,9.75 1.04318,2.4403 2.26145,3.75 3.48822,3.75 1.03685,0 6.36126,-3.33122 11.83204,-7.4027 z m 141.96774,-74.3473 c 0.97667,-3.72817 2.19715,-9.80301 6.57969,-32.75 1.26051,-6.6 3.02837,-15.6 3.92858,-20 6.62733,-32.39248 7.63171,-38.69531 9.1337,-57.31666 0.81136,-10.05899 0.65768,-10.18334 -12.58474,-10.18334 -5.93767,0 -11.50757,0.27314 -12.37755,0.60699 -1.37457,0.52747 -1.58179,3.42584 -1.58179,22.12455 0,11.83467 -0.71047,38.81956 -1.57882,59.96643 -0.86835,21.14687 -1.33247,39.09082 -1.03138,39.87544 0.34756,0.90573 2.00467,1.42659 4.53867,1.42659 3.77079,0 4.04551,-0.20713 4.97364,-3.75 z"
         style="fill:#000000" />
    </g>
  </g>
</svg>
