/* XPM */
static char * monteverdi2_xpm[] = {
"32 32 456 2",
"  	c None",
". 	c #212121",
"+ 	c #3A1314",
"@ 	c #340C0D",
"# 	c #101414",
"$ 	c #121111",
"% 	c #101010",
"& 	c #1E1D1D",
"* 	c #720608",
"= 	c #650103",
"- 	c #001312",
"; 	c #151010",
"> 	c #6A6968",
", 	c #878584",
"' 	c #171414",
") 	c #1B1516",
"! 	c #7B080B",
"~ 	c #67090A",
"{ 	c #011817",
"] 	c #000000",
"^ 	c #9B9A9A",
"/ 	c #DEDCDC",
"( 	c #474544",
"_ 	c #535151",
": 	c #6D6C6C",
"< 	c #727373",
"[ 	c #747374",
"} 	c #737272",
"| 	c #6C6A6A",
"1 	c #444B4A",
"2 	c #110708",
"3 	c #650001",
"4 	c #520F10",
"5 	c #1A1817",
"6 	c #4C4B4B",
"7 	c #818080",
"8 	c #DFDFDE",
"9 	c #FFFFFF",
"0 	c #E0E8E8",
"a 	c #251314",
"b 	c #4B0000",
"c 	c #3A0F10",
"d 	c #070505",
"e 	c #4E4D4D",
"f 	c #A4A2A2",
"g 	c #C9C7C6",
"h 	c #C1BFBE",
"i 	c #E4E4E4",
"j 	c #E8E7E7",
"k 	c #A8A6A6",
"l 	c #B2B0AE",
"m 	c #E7E5E4",
"n 	c #D4DDDD",
"o 	c #270F10",
"p 	c #440000",
"q 	c #1C0E0F",
"r 	c #1E1B1B",
"s 	c #80807F",
"t 	c #BAB7B5",
"u 	c #85817E",
"v 	c #413F40",
"w 	c #0F0F12",
"x 	c #A19F9F",
"y 	c #CCCBCB",
"z 	c #171518",
"A 	c #14151C",
"B 	c #383635",
"C 	c #6B6864",
"D 	c #CECCCA",
"E 	c #C3C7C6",
"F 	c #180909",
"G 	c #1B0000",
"H 	c #0E0F0F",
"I 	c #232121",
"J 	c #92908F",
"K 	c #9E9B97",
"L 	c #312F30",
"M 	c #0F1B30",
"N 	c #274168",
"O 	c #132034",
"P 	c #9A9794",
"Q 	c #E2E0DD",
"R 	c #262528",
"S 	c #253F64",
"T 	c #274166",
"U 	c #0E1728",
"V 	c #232325",
"W 	c #908E8E",
"X 	c #F3F2F2",
"Y 	c #8A8989",
"Z 	c #020000",
"` 	c #2E0A0C",
" .	c #4C0D0E",
"..	c #551011",
"+.	c #4C1011",
"@.	c #3F0C0D",
"#.	c #2B0C0D",
"$.	c #110D0D",
"%.	c #0A1B1B",
"&.	c #1A1717",
"*.	c #7D7B7A",
"=.	c #87827F",
"-.	c #13161E",
";.	c #253E62",
">.	c #486DA0",
",.	c #5178AE",
"'.	c #1F3149",
").	c #94918D",
"!.	c #FFFFFD",
"~.	c #2D2B2A",
"{.	c #2B466E",
"].	c #5680BB",
"^.	c #4C70A4",
"/.	c #1B2A42",
"(.	c #040000",
"_.	c #1E1915",
":.	c #0D0C0C",
"<.	c #000302",
"[.	c #0C0202",
"}.	c #360000",
"|.	c #730000",
"1.	c #AC0107",
"2.	c #C1070B",
"3.	c #B4070B",
"4.	c #AA0609",
"5.	c #93070A",
"6.	c #49090A",
"7.	c #111413",
"8.	c #4D4B4B",
"9.	c #837F7D",
"0.	c #141923",
"a.	c #304E78",
"b.	c #4B72A8",
"c.	c #466DA0",
"d.	c #486C9E",
"e.	c #1B2B42",
"f.	c #8E8C88",
"g.	c #514F4D",
"h.	c #16243A",
"i.	c #426392",
"j.	c #2E415E",
"k.	c #151821",
"l.	c #0B101A",
"m.	c #000510",
"n.	c #0C130A",
"o.	c #568F54",
"p.	c #558F52",
"q.	c #3A5834",
"r.	c #1D2115",
"s.	c #370004",
"t.	c #A2050A",
"u.	c #E10C0F",
"v.	c #DA0A0F",
"w.	c #DB0A0E",
"x.	c #C4070B",
"y.	c #510608",
"z.	c #171C1C",
"A.	c #373536",
"B.	c #575553",
"C.	c #2F2F33",
"D.	c #2A4469",
"E.	c #4B73A9",
"F.	c #436899",
"G.	c #436798",
"H.	c #496C9E",
"I.	c #1C2A42",
"J.	c #8A8784",
"K.	c #BBB9B8",
"L.	c #1D1D21",
"M.	c #101828",
"N.	c #19212E",
"O.	c #2D405C",
"P.	c #466999",
"Q.	c #476B9E",
"R.	c #111027",
"S.	c #131C0B",
"T.	c #72CE71",
"U.	c #78DC78",
"V.	c #70D473",
"W.	c #5EB967",
"X.	c #255E37",
"Y.	c #140807",
"Z.	c #910107",
"`.	c #D70A0E",
" +	c #CC0A0E",
".+	c #DA0A0E",
"++	c #B0080C",
"@+	c #230B0B",
"#+	c #302D2D",
"$+	c #27211C",
"%+	c #19263A",
"&+	c #496FA3",
"*+	c #44699A",
"=+	c #496D9F",
"-+	c #888581",
";+	c #D9D8D8",
">+	c #130E0A",
",+	c #33496C",
"'+	c #4E78B1",
")+	c #4C76AE",
"!+	c #406190",
"~+	c #0F0F26",
"{+	c #141C0D",
"]+	c #6EC56C",
"^+	c #74D473",
"/+	c #70CD6F",
"(+	c #75D574",
"_+	c #74D676",
":+	c #2F7040",
"<+	c #200002",
"[+	c #A90309",
"}+	c #D10A0E",
"|+	c #D00A0E",
"1+	c #420405",
"2+	c #1D1A1A",
"3+	c #1A212F",
"4+	c #3B5781",
"5+	c #466DA1",
"6+	c #446899",
"7+	c #496DA0",
"8+	c #1B2941",
"9+	c #928E8A",
"0+	c #5C5A5A",
"a+	c #7E7C7B",
"b+	c #676565",
"c+	c #0B0F17",
"d+	c #0E1D32",
"e+	c #142339",
"f+	c #0C111C",
"g+	c #0D180D",
"h+	c #68B566",
"i+	c #73D272",
"j+	c #6EC86D",
"k+	c #6DC86C",
"l+	c #6CCB70",
"m+	c #204328",
"n+	c #5B0002",
"o+	c #D5080D",
"p+	c #CF0A0E",
"q+	c #600609",
"r+	c #272A33",
"s+	c #40618E",
"t+	c #476CA0",
"u+	c #4A6FA1",
"v+	c #17253D",
"w+	c #908B87",
"x+	c #999897",
"y+	c #716F6F",
"z+	c #A6A4A1",
"A+	c #6C6762",
"B+	c #6E6864",
"C+	c #A19E9B",
"D+	c #2F2B2F",
"E+	c #4F8B4F",
"F+	c #77D875",
"G+	c #6EC96D",
"H+	c #6DC76C",
"I+	c #6FCB6E",
"J+	c #76D876",
"K+	c #3E814A",
"L+	c #4A0002",
"M+	c #D5050B",
"N+	c #CD0A0E",
"O+	c #570507",
"P+	c #2F3643",
"Q+	c #456CA0",
"R+	c #446A9D",
"S+	c #426696",
"T+	c #4B72A6",
"U+	c #203350",
"V+	c #3B3430",
"W+	c #8A8787",
"X+	c #E4E3E3",
"Y+	c #FEFFFF",
"Z+	c #473E3F",
"`+	c #0B0000",
" @	c #224227",
".@	c #71D073",
"+@	c #77DA76",
"@@	c #72D171",
"#@	c #78DC77",
"$@	c #72D675",
"%@	c #2B5C36",
"&@	c #580002",
"*@	c #D5060C",
"=@	c #CE0A0E",
"-@	c #340405",
";@	c #2E333E",
">@	c #44699B",
",@	c #456A9D",
"'@	c #436696",
")@	c #476EA3",
"!@	c #365177",
"~@	c #000003",
"{@	c #A9A6A5",
"]@	c #F7F7F7",
"^@	c #FDFDFD",
"/@	c #F0FAFA",
"(@	c #402F2F",
"_@	c #740000",
":@	c #2D0205",
"<@	c #286037",
"[@	c #64BC68",
"}@	c #6BC46B",
"|@	c #65BF69",
"1@	c #347E47",
"2@	c #1B0B09",
"3@	c #970107",
"4@	c #D3090E",
"5@	c #D2090D",
"6@	c #A5090C",
"7@	c #241112",
"8@	c #262932",
"9@	c #436492",
"0@	c #476A9C",
"a@	c #111E33",
"b@	c #64605C",
"c@	c #FBFBFB",
"d@	c #FCFCFC",
"e@	c #FEFEFE",
"f@	c #DCE7E7",
"g@	c #312727",
"h@	c #AB0000",
"i@	c #A9040A",
"j@	c #280002",
"k@	c #202B1C",
"l@	c #314B2E",
"m@	c #212A1C",
"n@	c #200003",
"o@	c #7E0006",
"p@	c #D30A0E",
"q@	c #D1090E",
"r@	c #5A0508",
"s@	c #182020",
"t@	c #27262B",
"u@	c #334A6C",
"v@	c #456B9E",
"w@	c #436797",
"x@	c #3B5A86",
"y@	c #111620",
"z@	c #76726E",
"A@	c #FEFDFD",
"B@	c #D4DFDE",
"C@	c #342323",
"D@	c #AA0000",
"E@	c #E30A0F",
"F@	c #B4050A",
"G@	c #7B0004",
"H@	c #700003",
"I@	c #7D0004",
"J@	c #AF0309",
"K@	c #D50A0E",
"L@	c #9C070B",
"M@	c #210C0D",
"N@	c #252F41",
"O@	c #456A9C",
"P@	c #486FA4",
"Q@	c #34517A",
"R@	c #101520",
"S@	c #514D49",
"T@	c #B8B4B1",
"U@	c #EEECEB",
"V@	c #FFFEFD",
"W@	c #FCFBF9",
"X@	c #9AA3A1",
"Y@	c #271212",
"Z@	c #B30000",
"`@	c #D80A0F",
" #	c #D5090D",
".#	c #D4090D",
"+#	c #CA0A0E",
"@#	c #BD080C",
"##	c #3E090A",
"$#	c #0A1E1E",
"%#	c #221F22",
"&#	c #314564",
"*#	c #446798",
"=#	c #3B5B87",
"-#	c #17263F",
";#	c #22252C",
">#	c #454242",
",#	c #524D4C",
"'#	c #4C4949",
")#	c #263239",
"!#	c #0C0A0E",
"~#	c #940507",
"{#	c #DD0A0E",
"]#	c #C8090D",
"^#	c #CA090E",
"/#	c #BE080C",
"(#	c #4E090A",
"_#	c #0E1515",
":#	c #22242C",
"<#	c #354F73",
"[#	c #476DA0",
"}#	c #4A6EA1",
"|#	c #375580",
"1#	c #264167",
"2#	c #233F66",
"3#	c #284670",
"4#	c #294060",
"5#	c #131D23",
"6#	c #390402",
"7#	c #B5060A",
"8#	c #D8090D",
"9#	c #D80A0E",
"0#	c #D6090E",
"a#	c #CD080C",
"b#	c #9A080B",
"c#	c #3D0909",
"d#	c #0F1415",
"e#	c #20232B",
"f#	c #344A6C",
"g#	c #44689A",
"h#	c #4870A6",
"i#	c #466C9F",
"j#	c #436799",
"k#	c #4A71A7",
"l#	c #517BB3",
"m#	c #4D75AC",
"n#	c #3F5A81",
"o#	c #2A3241",
"p#	c #181B19",
"q#	c #36080A",
"r#	c #7F090C",
"s#	c #A7070A",
"t#	c #AB060A",
"u#	c #8F090C",
"v#	c #55090B",
"w#	c #1B0C0C",
"x#	c #1E1A1C",
"y#	c #2D3B51",
"z#	c #38547B",
"A#	c #406290",
"B#	c #476DA1",
"C#	c #4770A6",
"D#	c #466FA5",
"E#	c #486EA3",
"F#	c #38547A",
"G#	c #2E3D56",
"H#	c #101213",
"I#	c #1A0C0D",
"J#	c #110F0F",
"K#	c #0F1F1E",
"L#	c #202127",
"M#	c #2E3A4E",
"N#	c #364965",
"O#	c #394E6D",
"P#	c #3A4F6F",
"Q#	c #374D6C",
"R#	c #364966",
"S#	c #303C51",
"T#	c #1F2027",
"U#	c #231A16",
"V#	c #292120",
"W#	c #1C140F",
"                                                                ",
"                                                                ",
"                                                                ",
"                                                                ",
"                                      . + @ #                   ",
"                  $ %                 & * = -                   ",
"                ; > , '               ) ! ~ {                   ",
"                ] ^ / ( _ : < [ } | 1 2 3 4                     ",
"            5 6 7 8 9 9 9 9 9 9 9 9 0 a b c                     ",
"        d e f g h i j k l m 9 9 9 9 n o p q                     ",
"      r s t u v w x y z A B C D 9 9 E F G H                     ",
"    I J K L M N O P Q R S T U V W X Y ] ] Z `  ...+.@.#.$.%.    ",
"  &.*.=.-.;.>.,.'.).!.~.{.].^./.(._.:.] <.[.}.|.1.2.3.4.5.6.7.  ",
"  8.9.0.a.b.c.d.e.f.9 g.h.i.j.k.l.m.] n.o.p.q.r.s.t.u.v.w.x.y.z.",
"A.B.C.D.E.F.G.H.I.J.9 K.L.M.N.O.P.Q.R.S.T.U.V.W.X.Y.Z.`. +.+++@+",
"#+$+%+&+*+G.G.=+/.-+9 ;+>+] ,+'+)+!+~+{+]+^+/+(+_+:+<+[+}+|+}+1+",
"2+3+4+5+G.6+G.7+8+9+9 0+a+b+c+d+e+f+] g+h+i+j+k+^+l+m+n+o+p+ +q+",
"r+s+t+G.6+G.G.u+v+w+x+y+9 9 z+A+B+C+D+] E+F+G+H+I+J+K+L+M+|+N+O+",
"P+Q+R+G.G.6+S+T+U+V+W+X+9 9 9 Y+9 9 Z+`+ @.@+@@@#@$@%@&@*@}+=@-@",
";@>@,@G.6+F.'@)@!@~@{@9 ]@^@9 9 9 /@(@_@:@<@[@}@|@1@2@3@4@5@6@7@",
"8@9@,@6+G.6+G.F.0@a@b@9 9 c@d@e@9 f@g@h@i@j@k@l@m@n@o@p@N+q@r@s@",
"t@u@v@6+6+F.6+w@5+x@y@z@A@9 9 9 9 B@C@D@E@F@G@H@I@J@K@ +`.L@M@  ",
"  N@6+O@G.6+6+6+G.P@Q@R@S@T@U@V@W@X@Y@Z@`@p+ #o+.#|++#K@@###$#  ",
"  %#&#P@>@G.G.F.*#F.&+=#-#;#>#,#'#)#!#~#{#=@]#]#^#|+`./#(#_#    ",
"    :#<#P@,@G.G.F.G.w@[#}#|#1#2#3#4#5#6#7#8#9#9#0#a#b#c#d#      ",
"      e#f#g#h#i#F.G.*#'@j#k#l#m#n#o#  p#q#r#s#t#u#v#w#          ",
"        x#y#z#A#B#C#D#h#E#!+F#G#L.        H#I#w#J#K#            ",
"            L#M#N#O#P#Q#R#S#T#                                  ",
"                  U#V#W#                                        ",
"                                                                ",
"                                                                ",
"                                                                "};
